<?xml version="1.0" encoding="UTF-8" standalone="no"?>
<!DOCTYPE svg PUBLIC "-//W3C//DTD SVG 1.1//EN" "http://www.w3.org/Graphics/SVG/1.1/DTD/svg11.dtd">
<svg width="100%" height="100%" viewBox="0 0 800 455" version="1.1" xmlns="http://www.w3.org/2000/svg" xmlns:xlink="http://www.w3.org/1999/xlink" xml:space="preserve" xmlns:serif="http://www.serif.com/" style="fill-rule:evenodd;clip-rule:evenodd;stroke-linecap:round;stroke-linejoin:round;stroke-miterlimit:10;">
    <path d="M150.8,35.9L149.2,35.9L149.2,40.2L147.7,40.2L147.7,29.7L151.7,29.7C153.7,29.7 155,31.1 155,32.9C155,34.4 154,35.6 152.4,35.9L154.9,40.4L153.2,40.4L150.8,35.9ZM151.5,34.6C152.7,34.6 153.5,33.9 153.5,32.8C153.5,31.7 152.7,31 151.5,31L149.3,31L149.3,34.6L151.5,34.6ZM163.6,38.2C163.2,39.5 162,40.5 160.4,40.5C158.5,40.5 156.8,39.1 156.8,36.6C156.8,34.3 158.4,32.8 160.3,32.8C162.5,32.8 163.8,34.3 163.8,36.6L163.8,37.1L158.4,37.1C158.4,38.4 159.4,39.3 160.6,39.3C161.8,39.3 162.4,38.7 162.6,37.8L163.6,38.2ZM162.2,35.9C162.2,34.9 161.5,34.1 160.2,34.1C159,34.1 158.3,35 158.2,35.9L162.2,35.9ZM166.2,40.3L166.2,29.4L167.6,29.4L167.6,40.3L166.2,40.3ZM177,38.2C176.6,39.5 175.4,40.5 173.8,40.5C171.9,40.5 170.2,39.1 170.2,36.6C170.2,34.3 171.8,32.8 173.6,32.8C175.8,32.8 177.1,34.3 177.1,36.6L177.1,37.1L171.7,37.1C171.7,38.4 172.7,39.3 173.9,39.3C175.1,39.3 175.7,38.7 175.9,37.8L177,38.2ZM175.6,35.9C175.6,34.9 174.9,34.1 173.6,34.1C172.4,34.1 171.7,35 171.6,35.9L175.6,35.9ZM181.4,36.2L183.3,35.9C183.7,35.8 183.9,35.6 183.9,35.4C183.9,34.7 183.4,34.1 182.3,34.1C181.3,34.1 180.8,34.7 180.7,35.6L179.3,35.3C179.5,33.9 180.7,33 182.3,33C184.5,33 185.3,34.2 185.3,35.6L185.3,39.2C185.3,39.8 185.4,40.2 185.4,40.4L184,40.4C184,40.2 183.9,39.9 183.9,39.4C183.6,39.9 182.9,40.6 181.6,40.6C180.1,40.6 179.2,39.6 179.2,38.4C179.2,37.1 180.1,36.3 181.4,36.2ZM183.9,37.2L183.9,36.9L181.7,37.2C181.1,37.3 180.7,37.6 180.7,38.3C180.7,38.8 181.1,39.3 181.9,39.3C182.9,39.3 183.9,38.8 183.9,37.2ZM188.8,38C188.9,38.8 189.5,39.3 190.5,39.3C191.3,39.3 191.7,38.9 191.7,38.3C191.7,37.9 191.4,37.5 190.8,37.4L189.6,37.1C188.5,36.9 187.8,36.1 187.8,35.1C187.8,33.9 189,32.8 190.4,32.8C192.4,32.8 193,34.1 193.1,34.7L191.9,35.2C191.8,34.8 191.5,34 190.4,34C189.7,34 189.2,34.5 189.2,35C189.2,35.4 189.5,35.8 190,35.9L191.2,36.2C192.5,36.5 193.2,37.3 193.2,38.3C193.2,39.3 192.3,40.5 190.6,40.5C188.6,40.5 187.8,39.2 187.7,38.4L188.8,38ZM202,38.2C201.6,39.5 200.4,40.5 198.8,40.5C196.9,40.5 195.2,39.1 195.2,36.6C195.2,34.3 196.8,32.8 198.7,32.8C200.9,32.8 202.2,34.3 202.2,36.6L202.2,37.1L196.8,37.1C196.8,38.4 197.8,39.3 199,39.3C200.2,39.3 200.8,38.7 201,37.8L202,38.2ZM200.5,35.9C200.5,34.9 199.8,34.1 198.5,34.1C197.3,34.1 196.6,35 196.5,35.9L200.5,35.9Z" style="fill:rgb(64,64,64);fill-rule:nonzero;"/>
    <rect x="145.5" y="9.3" width="96.2" height="50" style="fill:rgb(177,139,232);fill-rule:nonzero;stroke:rgb(64,64,64);stroke-width:4px;"/>
    <path d="M165.8,40.3L165.8,29.7L169.5,29.7C172.2,29.7 174.6,31.5 174.6,35C174.6,38.5 172.2,40.3 169.5,40.3L165.8,40.3ZM169.5,39C171.5,39 173.1,37.7 173.1,35C173.1,32.3 171.5,31 169.5,31L167.3,31L167.3,39L169.5,39ZM183.5,38.2C183.1,39.5 181.9,40.5 180.3,40.5C178.4,40.5 176.7,39.1 176.7,36.6C176.7,34.3 178.3,32.8 180.2,32.8C182.4,32.8 183.7,34.3 183.7,36.6L183.7,37.1L178.3,37.1C178.3,38.4 179.3,39.3 180.5,39.3C181.7,39.3 182.3,38.7 182.5,37.8L183.5,38.2ZM182.1,35.9C182.1,34.9 181.4,34.1 180.1,34.1C178.9,34.1 178.2,35 178.1,35.9L182.1,35.9ZM189.6,40.3L188.2,40.3L185.3,33.1L186.9,33.1L189,38.7L191.1,33.1L192.6,33.1L189.6,40.3ZM200.3,38.2C199.9,39.5 198.7,40.5 197.1,40.5C195.2,40.5 193.5,39.1 193.5,36.6C193.5,34.3 195.1,32.8 197,32.8C199.2,32.8 200.5,34.3 200.5,36.6L200.5,37.1L195.1,37.1C195.1,38.4 196.1,39.3 197.3,39.3C198.5,39.3 199.1,38.7 199.3,37.8L200.3,38.2ZM198.9,35.9C198.9,34.9 198.2,34.1 196.9,34.1C195.7,34.1 195,35 194.9,35.9L198.9,35.9ZM202.9,40.3L202.9,29.4L204.3,29.4L204.3,40.3L202.9,40.3ZM214.2,36.7C214.2,38.9 212.7,40.5 210.5,40.5C208.3,40.5 206.8,38.9 206.8,36.7C206.8,34.5 208.3,32.9 210.5,32.9C212.7,32.9 214.2,34.5 214.2,36.7ZM212.8,36.7C212.8,35 211.8,34.1 210.6,34.1C209.4,34.1 208.4,35 208.4,36.7C208.4,38.4 209.4,39.3 210.6,39.3C211.8,39.3 212.8,38.4 212.8,36.7ZM216.8,43.1L216.8,33.1L218.2,33.1L218.2,34.2C218.6,33.5 219.4,32.9 220.6,32.9C222.8,32.9 223.9,34.6 223.9,36.7C223.9,38.8 222.7,40.5 220.5,40.5C219.4,40.5 218.5,40 218.2,39.3L218.2,43.1L216.8,43.1ZM220.3,34.2C219,34.2 218.2,35.3 218.2,36.7C218.2,38.2 219.1,39.2 220.3,39.2C221.6,39.2 222.4,38.1 222.4,36.7C222.4,35.2 221.6,34.2 220.3,34.2Z" style="fill:rgb(64,64,64);fill-rule:nonzero;"/>
    <rect x="283.3" y="9.3" width="96.2" height="50" style="fill:rgb(78,209,161);fill-rule:nonzero;stroke:rgb(64,64,64);stroke-width:4px;"/>
    <path d="M305.9,39.9L305.9,29.2L312.4,29.2L312.4,30.6L307.4,30.6L307.4,34L311.9,34L311.9,35.4L307.4,35.4L307.4,39.9L305.9,39.9ZM320.5,37.7C320.1,39 318.9,40 317.3,40C315.4,40 313.7,38.6 313.7,36.1C313.7,33.8 315.3,32.3 317.1,32.3C319.3,32.3 320.6,33.8 320.6,36.1L320.6,36.6L315.2,36.6C315.2,37.9 316.2,38.8 317.4,38.8C318.6,38.8 319.2,38.2 319.4,37.3L320.5,37.7ZM319.1,35.4C319.1,34.4 318.4,33.6 317.1,33.6C315.9,33.6 315.2,34.5 315.1,35.4L319.1,35.4ZM324.9,35.7L326.9,35.4C327.3,35.3 327.5,35.1 327.5,34.9C327.5,34.2 327,33.6 325.9,33.6C324.9,33.6 324.4,34.2 324.3,35.1L322.9,34.8C323.1,33.4 324.3,32.5 325.9,32.5C328.1,32.5 328.9,33.7 328.9,35.1L328.9,38.7C328.9,39.3 329,39.7 329,39.9L327.6,39.9C327.6,39.7 327.5,39.4 327.5,38.9C327.2,39.4 326.5,40.1 325.2,40.1C323.7,40.1 322.8,39.1 322.8,37.9C322.7,36.6 323.6,35.8 324.9,35.7ZM327.4,36.7L327.4,36.4L325.2,36.7C324.6,36.8 324.2,37.1 324.2,37.8C324.2,38.3 324.7,38.8 325.4,38.8C326.4,38.8 327.4,38.3 327.4,36.7ZM333.6,32.6L335.2,32.6L335.2,33.9L333.6,33.9L333.6,37.7C333.6,38.4 333.9,38.7 334.6,38.7C334.8,38.7 335,38.7 335.2,38.6L335.2,39.8C335.1,39.8 334.7,39.9 334.2,39.9C333,39.9 332.2,39.1 332.2,37.8L332.2,33.8L330.8,33.8L330.8,32.5L331.2,32.5C332,32.5 332.3,32 332.3,31.4L332.3,30.2L333.6,30.2L333.6,32.6ZM340.4,40C338.7,40 337.7,38.7 337.7,37.1L337.7,32.6L339.1,32.6L339.1,36.9C339.1,37.9 339.6,38.8 340.7,38.8C341.8,38.8 342.4,38 342.4,37L342.4,32.7L343.8,32.7L343.8,38.6C343.8,39.2 343.8,39.7 343.9,39.9L342.6,39.9C342.6,39.7 342.5,39.3 342.5,39C342.2,39.7 341.3,40 340.4,40ZM351.1,34L350.4,34C349.2,34 348.4,34.6 348.4,36.2L348.4,39.8L347,39.8L347,32.6L348.4,32.6L348.4,33.9C348.9,32.8 349.8,32.5 350.6,32.5L351.1,32.5L351.1,34ZM359.5,37.7C359.1,39 357.9,40 356.3,40C354.4,40 352.7,38.6 352.7,36.1C352.7,33.8 354.3,32.3 356.2,32.3C358.4,32.3 359.7,33.8 359.7,36.1L359.7,36.6L354.3,36.6C354.3,37.9 355.3,38.8 356.5,38.8C357.7,38.8 358.3,38.2 358.5,37.3L359.5,37.7ZM358.1,35.4C358.1,34.4 357.4,33.6 356.1,33.6C354.9,33.6 354.2,34.5 354.1,35.4L358.1,35.4Z" style="fill:rgb(64,64,64);fill-rule:nonzero;"/>
    <path d="M424.2,340.2C424.2,323.2 438,309.4 455,309.4" style="fill:none;fill-rule:nonzero;stroke:rgb(64,64,64);stroke-width:4px;stroke-linecap:butt;stroke-linejoin:miter;"/>
    <path d="M253.9,340.2C253.9,323.2 240.1,309.4 223.1,309.4" style="fill:none;fill-rule:nonzero;stroke:rgb(64,64,64);stroke-width:4px;stroke-linecap:butt;stroke-linejoin:miter;"/>
    <path d="M204.721,432.5C145.368,432.5 207.838,309.739 148.484,309.739M204.721,432.5L378.2,432.5" style="fill:none;fill-rule:nonzero;stroke:rgb(64,64,64);stroke-width:4px;stroke-linecap:butt;stroke-linejoin:miter;"/>
    <g transform="matrix(1,0,0,1,-26.4547,0)">
        <circle cx="315.6" cy="432.5" r="15.8" style="fill:rgb(78,209,161);stroke:rgb(64,64,64);stroke-width:4px;stroke-linecap:butt;stroke-linejoin:miter;"/>
    </g>
    <circle cx="362.5" cy="432.5" r="15.8" style="fill:rgb(78,209,161);stroke:rgb(64,64,64);stroke-width:4px;stroke-linecap:butt;stroke-linejoin:miter;"/>
    <g transform="matrix(1,0,0,1,-21.7064,0)">
        <circle cx="242.2" cy="432.5" r="15.8" style="fill:rgb(78,209,161);stroke:rgb(64,64,64);stroke-width:4px;stroke-linecap:butt;stroke-linejoin:miter;"/>
    </g>
    <g transform="matrix(0.541136,0,0,0.541136,72.9598,142.115)">
        <path d="M776,309.5L135.645,309.949" style="fill:none;fill-rule:nonzero;stroke:rgb(64,64,64);stroke-width:7.39px;stroke-linecap:butt;stroke-linejoin:miter;"/>
    </g>
    <circle cx="485" cy="309.5" r="15.8" style="fill:rgb(177,139,232);stroke:rgb(64,64,64);stroke-width:4px;stroke-linecap:butt;stroke-linejoin:miter;"/>
    <path d="M253.9,340.2C253.9,357.2 267.7,371 284.7,371L392.6,371" style="fill:none;fill-rule:nonzero;stroke:rgb(64,64,64);stroke-width:4px;stroke-linecap:butt;stroke-linejoin:miter;"/>
    <g transform="matrix(1,0,0,1,-7.12241,0)">
        <circle cx="315.6" cy="371" r="15.8" style="fill:rgb(78,209,161);stroke:rgb(64,64,64);stroke-width:4px;stroke-linecap:butt;stroke-linejoin:miter;"/>
    </g>
    <g transform="matrix(1,0,0,1,0,-2.7133)">
        <circle cx="362.5" cy="371" r="15.8" style="fill:rgb(78,209,161);stroke:rgb(64,64,64);stroke-width:4px;stroke-linecap:butt;stroke-linejoin:miter;"/>
    </g>
    <g transform="matrix(1,0,0,1,276.757,0)">
        <path d="M253.9,340.2C253.9,323.2 240.1,309.4 223.1,309.4" style="fill:none;fill-rule:nonzero;stroke:rgb(64,64,64);stroke-width:4px;stroke-linecap:butt;stroke-linejoin:miter;"/>
    </g>
    <g transform="matrix(0.858173,0,0,1,312.766,0)">
        <path d="M253.9,340.2C253.9,357.2 267.7,371 284.7,371L392.6,371" style="fill:none;fill-rule:nonzero;stroke:rgb(64,64,64);stroke-width:4px;stroke-linecap:butt;stroke-linejoin:miter;"/>
    </g>
    <g transform="matrix(1,0,0,1,269.634,0)">
        <circle cx="315.6" cy="371" r="15.8" style="fill:rgb(78,209,161);stroke:rgb(64,64,64);stroke-width:4px;stroke-linecap:butt;stroke-linejoin:miter;"/>
    </g>
    <g transform="matrix(1,0,0,1,276.757,-2.7133)">
        <circle cx="362.5" cy="371" r="15.8" style="fill:rgb(78,209,161);stroke:rgb(64,64,64);stroke-width:4px;stroke-linecap:butt;stroke-linejoin:miter;"/>
    </g>
    <path d="M392.6,371L393.5,371C410.5,371 424.2,357.2 424.2,340.2" style="fill:none;fill-rule:nonzero;stroke:rgb(64,64,64);stroke-width:4px;stroke-linecap:butt;stroke-linejoin:miter;"/>
    <g transform="matrix(1,0,0,1,-167.546,-61.7276)">
        <path d="M424.2,340.2C424.2,323.2 438,309.4 455,309.4" style="fill:none;fill-rule:nonzero;stroke:rgb(64,64,64);stroke-width:4px;stroke-linecap:butt;stroke-linejoin:miter;"/>
    </g>
    <g transform="matrix(1,0,0,1,-167.546,-61.7276)">
        <path d="M392.6,371L393.5,371C410.5,371 424.2,357.2 424.2,340.2" style="fill:none;fill-rule:nonzero;stroke:rgb(64,64,64);stroke-width:4px;stroke-linecap:butt;stroke-linejoin:miter;"/>
    </g>
    <g transform="matrix(1,0,0,1,-167.546,-61.7276)">
        <path d="M700.278,340.2C700.278,323.2 714.078,309.4 731.078,309.4" style="fill:none;fill-rule:nonzero;stroke:rgb(64,64,64);stroke-width:4px;stroke-linecap:butt;stroke-linejoin:miter;"/>
    </g>
    <g transform="matrix(1,0,0,1,-167.546,-61.7276)">
        <path d="M668.678,371L669.578,371C686.578,371 700.278,357.2 700.278,340.2" style="fill:none;fill-rule:nonzero;stroke:rgb(64,64,64);stroke-width:4px;stroke-linecap:butt;stroke-linejoin:miter;"/>
    </g>
    <path d="M70.6,309.5L21.1,309.5" style="fill:none;fill-rule:nonzero;stroke:rgb(204,204,204);stroke-width:4px;stroke-miterlimit:4;stroke-dasharray:0,14.12;"/>
    <path d="M761.1,248L678.8,248" style="fill:none;fill-rule:nonzero;stroke:rgb(204,204,204);stroke-width:4px;stroke-miterlimit:4;stroke-dasharray:0,14.96;"/>
    <g transform="matrix(1,0,0,1,0,63.169)">
        <path d="M761.1,248L678.8,248" style="fill:none;fill-rule:nonzero;stroke:rgb(204,204,204);stroke-width:4px;stroke-miterlimit:4;stroke-dasharray:0,14.96;"/>
    </g>
    <path d="M84.7,278.7C84.7,261.7 70.9,247.9 53.9,247.9" style="fill:none;fill-rule:nonzero;stroke:rgb(64,64,64);stroke-width:4px;stroke-linecap:butt;stroke-linejoin:miter;"/>
    <g transform="matrix(0.870673,0,0,0.870673,5.04377,32.0732)">
        <path d="M644.8,248L39,248" style="fill:none;fill-rule:nonzero;stroke:rgb(64,64,64);stroke-width:4.59px;stroke-linecap:butt;stroke-linejoin:miter;"/>
    </g>
    <g transform="matrix(0.9999,-0.0151463,0.0151463,0.9999,-3.7536,0.3798)">
        <circle cx="23.2" cy="248" r="15.8" style="fill:rgb(179,227,255);stroke:rgb(64,64,64);stroke-width:4px;stroke-linecap:butt;stroke-linejoin:miter;"/>
    </g>
    <g transform="matrix(1,0,0,1,-14.584,0)">
        <circle cx="315.6" cy="248" r="15.8" style="fill:rgb(179,227,255);stroke:rgb(64,64,64);stroke-width:4px;stroke-linecap:butt;stroke-linejoin:miter;"/>
    </g>
    <g transform="matrix(1,0,0,1,-69.1891,0)">
        <circle cx="644.8" cy="248" r="15.8" style="fill:rgb(179,227,255);stroke:rgb(64,64,64);stroke-width:4px;stroke-linecap:butt;stroke-linejoin:miter;"/>
    </g>
    <rect x="48.8" y="142.5" width="42.5" height="37.5" style="fill:rgb(179,227,255);fill-rule:nonzero;stroke:rgb(64,64,64);stroke-width:4px;"/>
    <path d="M62.4,165.7L61.2,165.7L58.7,159.4L60,159.4L61.8,164.2L63.6,159.4L64.9,159.4L62.4,165.7ZM67,158.5C67.5,157.7 68.4,157.1 69.6,157.1C70.8,157.1 71.6,157.6 72.2,158.5C72.8,159.3 73,160.4 73,161.6C73,162.8 72.8,163.8 72.2,164.7C71.7,165.5 70.8,166.1 69.6,166.1C68.4,166.1 67.6,165.6 67,164.7C66.4,163.9 66.2,162.8 66.2,161.6C66.2,160.4 66.5,159.3 67,158.5ZM68.3,164.2C68.6,164.5 69,164.7 69.6,164.7C70.2,164.7 70.6,164.5 70.9,164.2C71.4,163.7 71.6,162.8 71.6,161.5C71.6,160.2 71.4,159.3 70.9,158.8C70.6,158.5 70.2,158.3 69.6,158.3C69,158.3 68.6,158.5 68.3,158.8C67.8,159.3 67.6,160.2 67.6,161.5C67.6,162.8 67.8,163.7 68.3,164.2ZM75.6,164C76.1,164 76.5,164.4 76.5,164.9C76.5,165.4 76.1,165.8 75.6,165.8C75.1,165.8 74.7,165.4 74.7,164.9C74.7,164.4 75,164 75.6,164ZM79.5,165.7L79.5,159.8L77.5,159.8L77.5,158.9C78.7,158.9 79.5,158.2 79.7,157.3L80.8,157.3L80.8,165.7L79.5,165.7Z" style="fill:rgb(64,64,64);fill-rule:nonzero;"/>
    <path d="M70.1,214.1L70.1,196.5M78.2,207.6L70.1,215.7L61.9,207.6" style="fill:none;fill-rule:nonzero;stroke:rgb(64,64,64);stroke-width:4px;"/>
    <g transform="matrix(1,0,0,1,-14.584,0)">
        <rect x="294.3" y="142.5" width="42.5" height="37.5" style="fill:rgb(179,227,255);fill-rule:nonzero;stroke:rgb(64,64,64);stroke-width:4px;"/>
    </g>
    <g transform="matrix(1,0,0,1,-14.584,0)">
        <path d="M306.3,165.7L305,165.7L302.5,159.4L303.9,159.4L305.7,164.2L307.5,159.4L308.8,159.4L306.3,165.7ZM310.9,158.5C311.4,157.7 312.3,157.1 313.5,157.1C314.7,157.1 315.5,157.6 316.1,158.5C316.7,159.3 316.9,160.4 316.9,161.6C316.9,162.8 316.7,163.8 316.1,164.7C315.6,165.5 314.7,166.1 313.5,166.1C312.3,166.1 311.5,165.6 310.9,164.7C310.3,163.9 310.1,162.8 310.1,161.6C310.1,160.4 310.4,159.3 310.9,158.5ZM312.2,164.2C312.5,164.5 312.9,164.7 313.5,164.7C314.1,164.7 314.5,164.5 314.8,164.2C315.3,163.7 315.5,162.8 315.5,161.5C315.5,160.2 315.3,159.3 314.8,158.8C314.5,158.5 314.1,158.3 313.5,158.3C312.9,158.3 312.5,158.5 312.2,158.8C311.7,159.3 311.5,160.2 311.5,161.5C311.5,162.8 311.7,163.7 312.2,164.2ZM319.5,164C320,164 320.4,164.4 320.4,164.9C320.4,165.4 320,165.8 319.5,165.8C319,165.8 318.6,165.4 318.6,164.9C318.6,164.4 319,164 319.5,164ZM322.5,160.2L322.5,159.9C322.5,158.5 323.6,157.2 325.4,157.2C327.2,157.2 328.2,158.4 328.2,159.8C328.2,160.9 327.6,161.8 326.6,162.4L324.9,163.5C324.4,163.8 324,164.2 323.9,164.7L328.2,164.7L328.2,165.9L322.3,165.9C322.3,164.5 322.9,163.5 324.3,162.5L325.7,161.6C326.5,161.1 326.9,160.5 326.9,159.8C326.9,159 326.4,158.3 325.3,158.3C324.2,158.3 323.7,159.1 323.7,160L323.7,160.4L322.5,160.2Z" style="fill:rgb(64,64,64);fill-rule:nonzero;"/>
    </g>
    <g transform="matrix(1,0,0,1,-14.584,0)">
        <path d="M315.6,214.1L315.6,196.5M323.7,207.6L315.6,215.7L307.4,207.6" style="fill:none;fill-rule:nonzero;stroke:rgb(64,64,64);stroke-width:4px;"/>
    </g>
    <g transform="matrix(1,0,0,1,-69.1891,0)">
        <rect x="623.5" y="142.5" width="42.5" height="37.5" style="fill:rgb(179,227,255);fill-rule:nonzero;stroke:rgb(64,64,64);stroke-width:4px;"/>
    </g>
    <g transform="matrix(1,0,0,1,-69.1891,0)">
        <path d="M636.6,165.7L635.4,165.7L632.9,159.4L634.3,159.4L636.1,164.2L637.9,159.4L639.2,159.4L636.6,165.7ZM642.2,165.7L642.2,159.8L640.2,159.8L640.2,158.9C641.4,158.9 642.2,158.2 642.4,157.3L643.5,157.3L643.5,165.7L642.2,165.7ZM646.8,164C647.3,164 647.7,164.4 647.7,164.9C647.7,165.4 647.3,165.8 646.8,165.8C646.3,165.8 645.9,165.4 645.9,164.9C645.9,164.4 646.3,164 646.8,164ZM650.4,158.5C650.9,157.7 651.8,157.1 653,157.1C654.2,157.1 655,157.6 655.6,158.5C656.2,159.3 656.4,160.4 656.4,161.6C656.4,162.8 656.2,163.8 655.6,164.7C655.1,165.5 654.2,166.1 653,166.1C651.8,166.1 651,165.6 650.4,164.7C649.8,163.9 649.6,162.8 649.6,161.6C649.6,160.4 649.8,159.3 650.4,158.5ZM651.6,164.2C651.9,164.5 652.3,164.7 652.9,164.7C653.5,164.7 653.9,164.5 654.2,164.2C654.7,163.7 654.9,162.8 654.9,161.5C654.9,160.2 654.7,159.3 654.2,158.8C653.9,158.5 653.5,158.3 652.9,158.3C652.3,158.3 651.9,158.5 651.6,158.8C651.1,159.3 650.9,160.2 650.9,161.5C650.9,162.8 651.1,163.7 651.6,164.2Z" style="fill:rgb(64,64,64);fill-rule:nonzero;"/>
    </g>
    <g transform="matrix(1,0,0,1,-69.1891,0)">
        <path d="M644.8,214.1L644.8,196.5M653,207.6L644.8,215.7L636.7,207.6" style="fill:none;fill-rule:nonzero;stroke:rgb(64,64,64);stroke-width:4px;"/>
    </g>
    <path d="M265.354,371L20.9,371" style="fill:none;fill-rule:nonzero;stroke:rgb(204,204,204);stroke-width:4px;stroke-miterlimit:4;stroke-dasharray:0,13.68;"/>
    <g transform="matrix(0.270208,0,0,0.486325,556.248,190.573)">
        <path d="M762.2,371L424.8,371" style="fill:none;fill-rule:nonzero;stroke:rgb(204,204,204);stroke-width:11.45px;stroke-miterlimit:4;stroke-dasharray:0,39.4;"/>
    </g>
    <path d="M184.894,432.5L20.9,432.5" style="fill:none;fill-rule:nonzero;stroke:rgb(204,204,204);stroke-width:4px;stroke-miterlimit:4;stroke-dasharray:0,13.65;"/>
    <path d="M762.1,432.5L393.6,432.5" style="fill:none;fill-rule:nonzero;stroke:rgb(204,204,204);stroke-width:4px;stroke-miterlimit:4;stroke-dasharray:0,13.91;"/>
    <path d="M84.7,278.7C84.7,295.7 98.5,309.5 115.5,309.5" style="fill:none;fill-rule:nonzero;stroke:rgb(64,64,64);stroke-width:4px;stroke-linecap:butt;stroke-linejoin:miter;"/>
    <g transform="matrix(1,0,0,1,12.5897,0)">
        <circle cx="195.4" cy="309.5" r="15.7" style="fill:rgb(177,139,232);stroke:rgb(64,64,64);stroke-width:4px;stroke-linecap:butt;stroke-linejoin:miter;"/>
    </g>
    <g transform="matrix(1,0,0,1,-16.9581,0)">
        <circle cx="148.5" cy="309.5" r="15.8" style="fill:rgb(177,139,232);stroke:rgb(64,64,64);stroke-width:4px;stroke-linecap:butt;stroke-linejoin:miter;"/>
    </g>
    <g>
        <rect x="7" y="9.3" width="96.2" height="50" style="fill:rgb(179,227,255);fill-rule:nonzero;stroke:rgb(64,64,64);stroke-width:4px;"/>
        <g>
            <path d="M39.9,40.4L39.9,30.4L41.9,30.4L44.3,37.5C44.5,38.2 44.7,38.7 44.8,39C44.9,38.6 45.1,38.1 45.3,37.4L47.7,30.4L49.5,30.4L49.5,40.4L48.2,40.4L48.2,32L45.3,40.4L44.1,40.4L41.2,31.9L41.2,40.4L39.9,40.4Z" style="fill:rgb(65,65,65);fill-rule:nonzero;"/>
            <path d="M56.9,39.5C56.4,39.9 56,40.2 55.6,40.3C55.2,40.5 54.7,40.5 54.2,40.5C53.4,40.5 52.8,40.3 52.4,39.9C52,39.5 51.8,39 51.8,38.4C51.8,38 51.9,37.7 52,37.4C52.2,37.1 52.4,36.9 52.6,36.7C52.9,36.5 53.2,36.4 53.5,36.3C53.7,36.2 54.1,36.2 54.6,36.1C55.6,36 56.3,35.8 56.8,35.7L56.8,35.4C56.8,34.9 56.7,34.5 56.5,34.3C56.2,34 55.7,33.9 55.1,33.9C54.5,33.9 54.1,34 53.8,34.2C53.5,34.4 53.3,34.8 53.2,35.3L52,35.1C52.1,34.6 52.3,34.2 52.5,33.9C52.8,33.6 53.1,33.3 53.6,33.2C54.1,33 54.6,32.9 55.2,32.9C55.8,32.9 56.3,33 56.7,33.1C57.1,33.2 57.4,33.4 57.6,33.7C57.8,33.9 57.9,34.2 58,34.5C58,34.7 58.1,35.1 58.1,35.6L58.1,37.2C58.1,38.3 58.1,39.1 58.2,39.4C58.3,39.7 58.4,40 58.5,40.3L57.2,40.3C57,40.2 56.9,39.9 56.9,39.5ZM56.8,36.8C56.4,37 55.7,37.1 54.8,37.3C54.3,37.4 53.9,37.5 53.7,37.5C53.5,37.5 53.3,37.7 53.2,37.9C53.1,38.1 53,38.3 53,38.5C53,38.8 53.1,39.1 53.4,39.3C53.6,39.5 54,39.6 54.5,39.6C55,39.6 55.4,39.5 55.8,39.3C56.2,39.1 56.4,38.8 56.6,38.4C56.7,38.1 56.8,37.7 56.8,37.2L56.8,36.8Z" style="fill:rgb(65,65,65);fill-rule:nonzero;"/>
            <path d="M60.6,31.8L60.6,30.4L61.8,30.4L61.8,31.8L60.6,31.8ZM60.6,40.4L60.6,33.1L61.8,33.1L61.8,40.4L60.6,40.4Z" style="fill:rgb(65,65,65);fill-rule:nonzero;"/>
            <path d="M64.4,40.4L64.4,33.1L65.5,33.1L65.5,34.1C66,33.3 66.8,32.9 67.8,32.9C68.2,32.9 68.6,33 69,33.1C69.4,33.3 69.6,33.5 69.8,33.7C70,33.9 70.1,34.3 70.2,34.6C70.2,34.8 70.3,35.2 70.3,35.8L70.3,40.3L69.1,40.3L69.1,35.9C69.1,35.4 69.1,35 69,34.8C68.9,34.6 68.7,34.4 68.5,34.2C68.3,34.1 68,34 67.6,34C67.1,34 66.6,34.2 66.2,34.5C65.8,34.8 65.6,35.5 65.6,36.4L65.6,40.4L64.4,40.4Z" style="fill:rgb(65,65,65);fill-rule:nonzero;"/>
        </g>
    </g>
</svg>
