<?xml version="1.0" encoding="UTF-8" standalone="no"?>
<!DOCTYPE svg PUBLIC "-//W3C//DTD SVG 1.1//EN" "http://www.w3.org/Graphics/SVG/1.1/DTD/svg11.dtd">
<svg width="100%" height="100%" viewBox="0 0 800 574" version="1.1" xmlns="http://www.w3.org/2000/svg" xmlns:xlink="http://www.w3.org/1999/xlink" xml:space="preserve" xmlns:serif="http://www.serif.com/" style="fill-rule:evenodd;clip-rule:evenodd;stroke-miterlimit:10;">
    <path d="M424.4,459.9C424.4,442.9 438.2,429.1 455.2,429.1" style="fill:none;fill-rule:nonzero;stroke:rgb(64,64,64);stroke-width:4px;"/>
    <path d="M254.1,459.9C254.1,442.9 240.3,429.1 223.3,429.1M164.5,552.1L378.4,552.1" style="fill:none;fill-rule:nonzero;stroke:rgb(64,64,64);stroke-width:4px;"/>
    <circle cx="315.8" cy="552.1" r="15.8" style="fill:rgb(78,209,161);stroke:rgb(64,64,64);stroke-width:4px;"/>
    <circle cx="362.7" cy="552.1" r="15.8" style="fill:rgb(78,209,161);stroke:rgb(64,64,64);stroke-width:4px;"/>
    <circle cx="242.5" cy="552.1" r="15.8" style="fill:rgb(78,209,161);stroke:rgb(64,64,64);stroke-width:4px;"/>
    <path d="M776.2,429.1L179.9,429.1" style="fill:none;fill-rule:nonzero;stroke:rgb(64,64,64);stroke-width:4px;"/>
    <circle cx="485.2" cy="429.1" r="15.8" style="fill:rgb(177,139,232);stroke:rgb(64,64,64);stroke-width:4px;"/>
    <circle cx="315.8" cy="429.1" r="15.8" style="fill:rgb(177,139,232);stroke:rgb(64,64,64);stroke-width:4px;"/>
    <circle cx="776.2" cy="429.1" r="15.8" style="fill:rgb(177,139,232);stroke:rgb(64,64,64);stroke-width:4px;"/>
    <path d="M254.1,459.9C254.1,476.9 267.9,490.7 284.9,490.7L392.8,490.7M84.9,275C84.9,292 98.7,305.8 115.7,305.8L133,305.8" style="fill:none;fill-rule:nonzero;stroke:rgb(64,64,64);stroke-width:4px;"/>
    <circle cx="315.8" cy="490.6" r="15.8" style="fill:rgb(78,209,161);stroke:rgb(64,64,64);stroke-width:4px;"/>
    <circle cx="362.7" cy="490.6" r="15.8" style="fill:rgb(78,209,161);stroke:rgb(64,64,64);stroke-width:4px;"/>
    <path d="M392.8,490.6L393.7,490.6C410.7,490.6 424.5,476.8 424.5,459.8" style="fill:none;fill-rule:nonzero;stroke:rgb(64,64,64);stroke-width:4px;"/>
    <path d="M57.2,306.1L21.5,306.1" style="fill:none;fill-rule:nonzero;stroke:rgb(204,204,204);stroke-width:4px;stroke-linecap:round;stroke-linejoin:round;stroke-miterlimit:4;stroke-dasharray:0,14.31;"/>
    <path d="M762.1,306.1L244.9,306.1" style="fill:none;fill-rule:nonzero;stroke:rgb(204,204,204);stroke-width:4px;stroke-linecap:round;stroke-linejoin:round;stroke-miterlimit:4;stroke-dasharray:0,14.17;"/>
    <path d="M531.5,367.6L21.3,367.6" style="fill:none;fill-rule:nonzero;stroke:rgb(204,204,204);stroke-width:4px;stroke-linecap:round;stroke-linejoin:round;stroke-miterlimit:4;stroke-dasharray:0,13.98;"/>
    <path d="M761.5,367.6L709.7,367.6" style="fill:none;fill-rule:nonzero;stroke:rgb(204,204,204);stroke-width:4px;stroke-linecap:round;stroke-linejoin:round;stroke-miterlimit:4;stroke-dasharray:0,14.79;"/>
    <path d="M761.3,244.6L679,244.6" style="fill:none;fill-rule:nonzero;stroke:rgb(204,204,204);stroke-width:4px;stroke-linecap:round;stroke-linejoin:round;stroke-miterlimit:4;stroke-dasharray:0,14.96;"/>
    <path d="M84.9,275.4C84.9,258.4 71.1,244.6 54.1,244.6M211.7,275C211.7,292 197.9,305.8 180.9,305.8L132.9,305.8M211.7,275.4C211.7,258.4 225.5,244.6 242.5,244.6M273.2,429.1C256.2,429.1 242.4,415.3 242.4,398.3L242.4,336.5M242.4,336.5C242.4,319.5 228.6,305.7 211.6,305.7" style="fill:none;fill-rule:nonzero;stroke:rgb(64,64,64);stroke-width:4px;"/>
    <circle cx="148.7" cy="552.1" r="15.8" style="fill:rgb(78,209,161);stroke:rgb(64,64,64);stroke-width:4px;"/>
    <path d="M645,244.6L39.2,244.6" style="fill:none;fill-rule:nonzero;stroke:rgb(64,64,64);stroke-width:4px;"/>
    <g transform="matrix(0.9999,-0.0151463,0.0151463,0.9999,-3.7021,0.384)">
        <circle cx="23.5" cy="244.6" r="15.8" style="fill:rgb(179,227,255);stroke:rgb(64,64,64);stroke-width:4px;"/>
    </g>
    <circle cx="315.8" cy="244.6" r="15.8" style="fill:rgb(179,227,255);stroke:rgb(64,64,64);stroke-width:4px;"/>
    <circle cx="645" cy="244.6" r="15.8" style="fill:rgb(179,227,255);stroke:rgb(64,64,64);stroke-width:4px;"/>
    <rect x="49" y="139.1" width="42.5" height="37.5" style="fill:rgb(179,227,255);fill-rule:nonzero;stroke:rgb(64,64,64);stroke-width:4px;stroke-linecap:round;stroke-linejoin:round;"/>
    <path d="M62.6,162.4L61.4,162.4L58.9,156.1L60.3,156.1L62.1,160.9L63.9,156.1L65.2,156.1L62.6,162.4ZM67.3,155.1C67.8,154.3 68.7,153.7 69.9,153.7C71.1,153.7 71.9,154.2 72.5,155.1C73.1,155.9 73.3,157 73.3,158.2C73.3,159.4 73.1,160.4 72.5,161.3C72,162.1 71.1,162.7 69.9,162.7C68.7,162.7 67.9,162.2 67.3,161.3C66.7,160.5 66.5,159.4 66.5,158.2C66.5,157 66.7,155.9 67.3,155.1ZM68.5,160.9C68.8,161.2 69.2,161.4 69.8,161.4C70.4,161.4 70.8,161.2 71.1,160.9C71.6,160.4 71.8,159.5 71.8,158.2C71.8,156.9 71.6,156 71.1,155.5C70.8,155.2 70.4,155 69.8,155C69.2,155 68.8,155.2 68.5,155.5C68,156 67.8,156.9 67.8,158.2C67.8,159.5 68,160.3 68.5,160.9ZM75.8,160.6C76.3,160.6 76.7,161 76.7,161.5C76.7,162 76.3,162.4 75.8,162.4C75.3,162.4 74.9,162 74.9,161.5C74.9,161 75.3,160.6 75.8,160.6ZM79.7,162.4L79.7,156.5L77.7,156.5L77.7,155.6C78.9,155.6 79.7,154.9 79.9,154L81,154L81,162.4L79.7,162.4Z" style="fill:rgb(64,64,64);fill-rule:nonzero;"/>
    <path d="M70.3,210.7L70.3,193.1M78.5,204.2L70.3,212.4L62.2,204.2" style="fill:none;fill-rule:nonzero;stroke:rgb(64,64,64);stroke-width:4px;stroke-linecap:round;stroke-linejoin:round;"/>
    <rect x="294.6" y="139.1" width="42.5" height="37.5" style="fill:rgb(179,227,255);fill-rule:nonzero;stroke:rgb(64,64,64);stroke-width:4px;stroke-linecap:round;stroke-linejoin:round;"/>
    <path d="M306.5,162.4L305.3,162.4L302.8,156.1L304.2,156.1L306,160.9L307.8,156.1L309.1,156.1L306.5,162.4ZM311.2,155.1C311.7,154.3 312.6,153.7 313.8,153.7C315,153.7 315.8,154.2 316.4,155.1C317,155.9 317.2,157 317.2,158.2C317.2,159.4 317,160.4 316.4,161.3C315.9,162.1 315,162.7 313.8,162.7C312.6,162.7 311.8,162.2 311.2,161.3C310.6,160.5 310.4,159.4 310.4,158.2C310.4,157 310.6,155.9 311.2,155.1ZM312.4,160.9C312.7,161.2 313.1,161.4 313.7,161.4C314.3,161.4 314.7,161.2 315,160.9C315.5,160.4 315.7,159.5 315.7,158.2C315.7,156.9 315.5,156 315,155.5C314.7,155.2 314.3,155 313.7,155C313.1,155 312.7,155.2 312.4,155.5C311.9,156 311.7,156.9 311.7,158.2C311.7,159.5 311.9,160.3 312.4,160.9ZM319.7,160.6C320.2,160.6 320.6,161 320.6,161.5C320.6,162 320.2,162.4 319.7,162.4C319.2,162.4 318.8,162 318.8,161.5C318.8,161 319.2,160.6 319.7,160.6ZM322.7,156.8L322.7,156.5C322.7,155.1 323.8,153.8 325.6,153.8C327.4,153.8 328.4,155 328.4,156.4C328.4,157.5 327.8,158.4 326.8,159L325.1,160.1C324.6,160.4 324.2,160.8 324.1,161.3L328.4,161.3L328.4,162.5L322.5,162.5C322.5,161.1 323.1,160.1 324.5,159.1L325.9,158.2C326.7,157.7 327.1,157.1 327.1,156.4C327.1,155.6 326.6,154.9 325.5,154.9C324.4,154.9 323.9,155.7 323.9,156.6L323.9,157L322.7,156.8Z" style="fill:rgb(64,64,64);fill-rule:nonzero;"/>
    <path d="M315.8,210.7L315.8,193.1M324,204.2L315.8,212.4L307.7,204.2" style="fill:none;fill-rule:nonzero;stroke:rgb(64,64,64);stroke-width:4px;stroke-linecap:round;stroke-linejoin:round;"/>
    <rect x="623.8" y="139.1" width="42.5" height="37.5" style="fill:rgb(179,227,255);fill-rule:nonzero;stroke:rgb(64,64,64);stroke-width:4px;stroke-linecap:round;stroke-linejoin:round;"/>
    <path d="M636.8,162.4L635.6,162.4L633.1,156.1L634.5,156.1L636.3,160.9L638.1,156.1L639.4,156.1L636.8,162.4ZM642.4,162.4L642.4,156.5L640.4,156.5L640.4,155.6C641.6,155.6 642.4,154.9 642.6,154L643.7,154L643.7,162.4L642.4,162.4ZM647,160.6C647.5,160.6 647.9,161 647.9,161.5C647.9,162 647.5,162.4 647,162.4C646.5,162.4 646.1,162 646.1,161.5C646.1,161 646.5,160.6 647,160.6ZM650.6,155.1C651.1,154.3 652,153.7 653.2,153.7C654.4,153.7 655.2,154.2 655.8,155.1C656.4,155.9 656.6,157 656.6,158.2C656.6,159.4 656.4,160.4 655.8,161.3C655.3,162.1 654.4,162.7 653.2,162.7C652,162.7 651.2,162.2 650.6,161.3C650,160.5 649.8,159.4 649.8,158.2C649.8,157 650.1,155.9 650.6,155.1ZM651.9,160.9C652.2,161.2 652.6,161.4 653.2,161.4C653.8,161.4 654.2,161.2 654.5,160.9C655,160.4 655.2,159.5 655.2,158.2C655.2,156.9 655,156 654.5,155.5C654.2,155.2 653.8,155 653.2,155C652.6,155 652.2,155.2 651.9,155.5C651.4,156 651.2,156.9 651.2,158.2C651.2,159.5 651.4,160.3 651.9,160.9Z" style="fill:rgb(64,64,64);fill-rule:nonzero;"/>
    <path d="M645,210.7L645,193.1M653.2,204.2L645,212.4L636.9,204.2" style="fill:none;fill-rule:nonzero;stroke:rgb(64,64,64);stroke-width:4px;stroke-linecap:round;stroke-linejoin:round;"/>
    <path d="M64.5,429.1L20.6,429.1" style="fill:none;fill-rule:nonzero;stroke:rgb(204,204,204);stroke-width:4px;stroke-linecap:round;stroke-linejoin:round;stroke-miterlimit:4;stroke-dasharray:0,12.54;"/>
    <path d="M246.9,490.6L21.2,490.6" style="fill:none;fill-rule:nonzero;stroke:rgb(204,204,204);stroke-width:4px;stroke-linecap:round;stroke-linejoin:round;stroke-miterlimit:4;stroke-dasharray:0,13.68;"/>
    <path d="M762.5,490.6L425.1,490.6" style="fill:none;fill-rule:nonzero;stroke:rgb(204,204,204);stroke-width:4px;stroke-linecap:round;stroke-linejoin:round;stroke-miterlimit:4;stroke-dasharray:0,13.77;"/>
    <path d="M109.9,552.1L21.1,552.1" style="fill:none;fill-rule:nonzero;stroke:rgb(204,204,204);stroke-width:4px;stroke-linecap:round;stroke-linejoin:round;stroke-miterlimit:4;stroke-dasharray:0,13.65;"/>
    <path d="M762.3,552.1L393.8,552.1" style="fill:none;fill-rule:nonzero;stroke:rgb(204,204,204);stroke-width:4px;stroke-linecap:round;stroke-linejoin:round;stroke-miterlimit:4;stroke-dasharray:0,13.91;"/>
    <rect x="283.5" y="5.2" width="96.2" height="50" style="fill:rgb(76,211,214);fill-rule:nonzero;stroke:rgb(64,64,64);stroke-width:4px;stroke-linecap:round;stroke-linejoin:round;"/>
    <path d="M308.8,31.8L307.2,31.8L307.2,36.1L305.7,36.1L305.7,25.6L309.7,25.6C311.7,25.6 313,27 313,28.8C313,30.3 312,31.5 310.4,31.8L312.9,36.3L311.2,36.3L308.8,31.8ZM309.5,30.5C310.7,30.5 311.5,29.8 311.5,28.7C311.5,27.6 310.7,26.9 309.5,26.9L307.3,26.9L307.3,30.5L309.5,30.5ZM321.6,34.1C321.2,35.4 320,36.4 318.4,36.4C316.5,36.4 314.8,35 314.8,32.5C314.8,30.2 316.4,28.7 318.3,28.7C320.5,28.7 321.8,30.2 321.8,32.5L321.8,33L316.4,33C316.4,34.3 317.4,35.2 318.6,35.2C319.8,35.2 320.4,34.6 320.6,33.7L321.6,34.1ZM320.2,31.8C320.2,30.8 319.5,30 318.2,30C317,30 316.3,30.9 316.2,31.8L320.2,31.8ZM324.2,36.2L324.2,25.3L325.6,25.3L325.6,36.2L324.2,36.2ZM335.1,34.1C334.7,35.4 333.5,36.4 331.9,36.4C330,36.4 328.3,35 328.3,32.5C328.3,30.2 329.9,28.7 331.8,28.7C334,28.7 335.3,30.2 335.3,32.5L335.3,33L329.9,33C329.9,34.3 330.9,35.2 332.1,35.2C333.3,35.2 333.9,34.6 334.1,33.7L335.1,34.1ZM333.7,31.8C333.7,30.8 333,30 331.7,30C330.5,30 329.8,30.9 329.7,31.8L333.7,31.8ZM339.4,32.1L341.4,31.8C341.8,31.7 342,31.5 342,31.3C342,30.6 341.5,30 340.4,30C339.4,30 338.9,30.6 338.8,31.5L337.4,31.2C337.6,29.8 338.8,28.9 340.4,28.9C342.6,28.9 343.4,30.1 343.4,31.5L343.4,35C343.4,35.6 343.5,36 343.5,36.2L342,36.2C342,36 341.9,35.7 341.9,35.2C341.6,35.7 340.9,36.4 339.6,36.4C338.1,36.4 337.2,35.4 337.2,34.2C337.2,33 338.2,32.2 339.4,32.1ZM341.9,33.1L341.9,32.8L339.7,33.1C339.1,33.2 338.7,33.5 338.7,34.2C338.7,34.7 339.2,35.2 339.9,35.2C341,35.2 341.9,34.7 341.9,33.1ZM346.9,33.9C347,34.7 347.6,35.2 348.6,35.2C349.4,35.2 349.8,34.7 349.8,34.2C349.8,33.8 349.5,33.4 348.9,33.3L347.7,33C346.6,32.8 345.9,32 345.9,31C345.9,29.8 347.1,28.7 348.5,28.7C350.5,28.7 351.1,30 351.2,30.6L350,31.1C349.9,30.7 349.6,29.9 348.5,29.9C347.8,29.9 347.3,30.4 347.3,30.9C347.3,31.3 347.6,31.7 348.1,31.8L349.3,32.1C350.6,32.4 351.3,33.2 351.3,34.2C351.3,35.2 350.4,36.4 348.7,36.4C346.7,36.4 345.9,35.1 345.8,34.3L346.9,33.9ZM360,34.1C359.6,35.4 358.4,36.4 356.8,36.4C354.9,36.4 353.2,35 353.2,32.5C353.2,30.2 354.8,28.7 356.7,28.7C358.9,28.7 360.2,30.2 360.2,32.5L360.2,33L354.8,33C354.8,34.3 355.8,35.2 357,35.2C358.2,35.2 358.8,34.6 359,33.7L360,34.1ZM358.6,31.8C358.6,30.8 357.9,30 356.6,30C355.4,30 354.7,30.9 354.6,31.8L358.6,31.8Z" style="fill:rgb(64,64,64);fill-rule:nonzero;"/>
    <rect x="421.3" y="5.2" width="96.2" height="50" style="fill:rgb(177,139,232);fill-rule:nonzero;stroke:rgb(64,64,64);stroke-width:4px;stroke-linecap:round;stroke-linejoin:round;"/>
    <path d="M441.7,36.2L441.7,25.6L445.4,25.6C448.1,25.6 450.5,27.4 450.5,30.9C450.5,34.4 448.1,36.2 445.4,36.2L441.7,36.2ZM445.3,34.9C447.3,34.9 448.9,33.6 448.9,30.9C448.9,28.2 447.3,26.9 445.3,26.9L443.1,26.9L443.1,34.9L445.3,34.9ZM459.3,34.1C458.9,35.4 457.7,36.4 456.1,36.4C454.2,36.4 452.5,35 452.5,32.5C452.5,30.2 454.1,28.7 455.9,28.7C458.1,28.7 459.4,30.2 459.4,32.5L459.4,33L454,33C454,34.3 455,35.2 456.2,35.2C457.4,35.2 458,34.6 458.2,33.7L459.3,34.1ZM457.9,31.8C457.9,30.8 457.2,30 455.9,30C454.7,30 454,30.9 453.9,31.8L457.9,31.8ZM465.4,36.2L464,36.2L461,29L462.6,29L464.7,34.6L466.8,29L468.3,29L465.4,36.2ZM476.1,34.1C475.7,35.4 474.5,36.4 472.9,36.4C471,36.4 469.3,35 469.3,32.5C469.3,30.2 470.9,28.7 472.8,28.7C475,28.7 476.3,30.2 476.3,32.5L476.3,33L470.9,33C470.9,34.3 471.9,35.2 473.1,35.2C474.3,35.2 474.9,34.6 475.1,33.7L476.1,34.1ZM474.7,31.8C474.7,30.8 474,30 472.7,30C471.5,30 470.8,30.9 470.7,31.8L474.7,31.8ZM478.7,36.2L478.7,25.3L480.1,25.3L480.1,36.2L478.7,36.2ZM490.1,32.6C490.1,34.8 488.6,36.4 486.4,36.4C484.2,36.4 482.7,34.8 482.7,32.6C482.7,30.4 484.2,28.8 486.4,28.8C488.5,28.7 490.1,30.4 490.1,32.6ZM488.6,32.6C488.6,30.9 487.6,30 486.4,30C485.2,30 484.2,30.9 484.2,32.6C484.2,34.3 485.2,35.2 486.4,35.2C487.6,35.2 488.6,34.2 488.6,32.6ZM492.6,39L492.6,29L494,29L494,30.1C494.4,29.4 495.2,28.8 496.4,28.8C498.6,28.8 499.7,30.5 499.7,32.6C499.7,34.7 498.5,36.4 496.3,36.4C495.2,36.4 494.3,35.9 494,35.2L494,39L492.6,39ZM496.1,30.1C494.8,30.1 494,31.2 494,32.6C494,34.1 494.9,35.2 496.1,35.2C497.4,35.2 498.2,34.1 498.2,32.6C498.3,31.1 497.5,30.1 496.1,30.1Z" style="fill:rgb(64,64,64);fill-rule:nonzero;"/>
    <rect x="145.8" y="5.2" width="96.2" height="50" style="fill:rgb(252,131,99);fill-rule:nonzero;stroke:rgb(64,64,64);stroke-width:4px;stroke-linecap:round;stroke-linejoin:round;"/>
    <path d="M180.9,36.2L180.9,31.5L175.5,31.5L175.5,36.2L174,36.2L174,25.6L175.5,25.6L175.5,30.1L180.9,30.1L180.9,25.6L182.4,25.6L182.4,36.2L180.9,36.2ZM192.4,32.6C192.4,34.8 190.9,36.4 188.7,36.4C186.5,36.4 185,34.8 185,32.6C185,30.4 186.5,28.8 188.7,28.8C190.9,28.7 192.4,30.4 192.4,32.6ZM191,32.6C191,30.9 190,30 188.8,30C187.6,30 186.6,30.9 186.6,32.6C186.6,34.3 187.6,35.2 188.8,35.2C190,35.2 191,34.2 191,32.6ZM196.8,29L198.4,29L198.4,30.3L196.8,30.3L196.8,34C196.8,34.7 197.1,35 197.8,35C198,35 198.2,35 198.4,34.9L198.4,36.1C198.3,36.1 197.9,36.2 197.4,36.2C196.2,36.2 195.4,35.4 195.4,34.1L195.4,30.1L194,30.1L194,29L194.4,29C195.2,29 195.5,28.5 195.5,27.9L195.5,26.7L196.8,26.7L196.8,29ZM204.6,25.4L204.6,26.7C204.5,26.7 204.3,26.6 204,26.6C203.5,26.6 202.9,26.8 202.9,27.8L202.9,29L207.7,29L207.7,36.2L206.3,36.2L206.3,30.3L202.9,30.3L202.9,36.2L201.4,36.2L201.4,30.3L200.1,30.3L200.1,29L201.4,29L201.4,27.8C201.4,26.2 202.5,25.3 203.8,25.3C204.2,25.3 204.5,25.4 204.6,25.4ZM206.9,25.2C207.5,25.2 207.9,25.6 207.9,26.2C207.9,26.8 207.4,27.2 206.9,27.2C206.3,27.2 205.9,26.7 205.9,26.2C205.9,25.6 206.4,25.2 206.9,25.2ZM212.4,32.5L209.8,29L211.5,29L213.3,31.5L215,29L216.7,29L214.1,32.5C214.5,33.1 216.3,35.6 216.8,36.2L215.1,36.2L213.2,33.5L211.4,36.2L209.7,36.2L212.4,32.5Z" style="fill:rgb(64,64,64);fill-rule:nonzero;"/>
    <rect x="559.1" y="5.2" width="96.2" height="50" style="fill:rgb(78,209,161);fill-rule:nonzero;stroke:rgb(64,64,64);stroke-width:4px;stroke-linecap:round;stroke-linejoin:round;"/>
    <path d="M581.6,35.7L581.6,25.1L588.1,25.1L588.1,26.5L583.1,26.5L583.1,29.9L587.6,29.9L587.6,31.3L583.1,31.3L583.1,35.8L581.6,35.7ZM596.3,33.6C595.9,34.9 594.7,35.9 593.1,35.9C591.2,35.9 589.5,34.5 589.5,32C589.5,29.7 591.1,28.2 593,28.2C595.2,28.2 596.5,29.7 596.5,32L596.5,32.5L591.1,32.5C591.1,33.8 592.1,34.7 593.3,34.7C594.5,34.7 595.1,34.1 595.3,33.2L596.3,33.6ZM594.8,31.3C594.8,30.3 594.1,29.5 592.8,29.5C591.6,29.5 590.9,30.4 590.8,31.3L594.8,31.3ZM600.6,31.6L602.6,31.3C603,31.2 603.2,31 603.2,30.8C603.2,30.1 602.7,29.5 601.6,29.5C600.6,29.5 600.1,30.1 600,31L598.7,30.7C598.9,29.3 600.1,28.4 601.7,28.4C603.9,28.4 604.7,29.6 604.7,31L604.7,34.6C604.7,35.2 604.8,35.6 604.8,35.8L603.4,35.8C603.4,35.6 603.3,35.3 603.3,34.8C603,35.3 602.3,36 601,36C599.5,36 598.6,35 598.6,33.8C598.4,32.5 599.3,31.7 600.6,31.6ZM603.1,32.6L603.1,32.3L600.9,32.6C600.3,32.7 599.9,33 599.9,33.7C599.9,34.2 600.4,34.7 601.1,34.7C602.2,34.7 603.1,34.2 603.1,32.6ZM609.3,28.5L610.9,28.5L610.9,29.8L609.3,29.8L609.3,33.6C609.3,34.3 609.6,34.6 610.3,34.6C610.5,34.6 610.7,34.6 610.9,34.5L610.9,35.7C610.8,35.7 610.4,35.8 609.9,35.8C608.7,35.8 607.9,35 607.9,33.7L607.9,29.7L606.5,29.7L606.5,28.4L606.9,28.4C607.7,28.4 608,27.9 608,27.3L608,26.1L609.3,26.1L609.3,28.5ZM616.1,35.9C614.4,35.9 613.4,34.6 613.4,33L613.4,28.5L614.8,28.5L614.8,32.8C614.8,33.8 615.3,34.7 616.4,34.7C617.5,34.7 618.1,33.9 618.1,32.9L618.1,28.6L619.5,28.6L619.5,34.5C619.5,35.1 619.5,35.6 619.6,35.8L618.3,35.8C618.3,35.6 618.2,35.2 618.2,34.9C617.9,35.6 617,35.9 616.1,35.9ZM626.9,29.9L626.2,29.9C625,29.9 624.2,30.5 624.2,32.1L624.2,35.7L622.8,35.7L622.8,28.5L624.2,28.5L624.2,29.8C624.7,28.7 625.6,28.4 626.4,28.4L626.9,28.4L626.9,29.9ZM635.2,33.6C634.8,34.9 633.6,35.9 632,35.9C630.1,35.9 628.4,34.5 628.4,32C628.4,29.7 630,28.2 631.9,28.2C634.1,28.2 635.4,29.7 635.4,32L635.4,32.5L630,32.5C630,33.8 631,34.7 632.2,34.7C633.4,34.7 634,34.1 634.2,33.2L635.2,33.6ZM633.8,31.3C633.8,30.3 633.1,29.5 631.8,29.5C630.6,29.5 629.9,30.4 629.8,31.3L633.8,31.3Z" style="fill:rgb(64,64,64);fill-rule:nonzero;"/>
    <path d="M84.9,275L84.9,398.4C84.9,415.4 98.7,429.2 115.7,429.2L211.4,429.2" style="fill:none;fill-rule:nonzero;stroke:rgb(64,64,64);stroke-width:4px;"/>
    <circle cx="195.6" cy="429.1" r="15.7" style="fill:rgb(177,139,232);stroke:rgb(64,64,64);stroke-width:4px;"/>
    <circle cx="148.7" cy="429.1" r="15.8" style="fill:rgb(177,139,232);stroke:rgb(64,64,64);stroke-width:4px;"/>
    <circle cx="148.7" cy="306.1" r="15.8" style="fill:rgb(252,131,99);stroke:rgb(64,64,64);stroke-width:4px;stroke-linecap:round;stroke-linejoin:round;"/>
    <path d="M536.5,398.4C536.5,415.4 522.7,429.2 505.7,429.2M706.7,398.4C706.7,415.4 720.5,429.2 737.5,429.2L760.5,429.2M568.1,367.6L567.2,367.6C550.2,367.6 536.4,381.4 536.4,398.4M706.7,398.4C706.7,381.4 692.9,367.6 675.9,367.6L568.1,367.6" style="fill:none;fill-rule:nonzero;stroke:rgb(64,64,64);stroke-width:4px;"/>
    <circle cx="645" cy="367.6" r="15.8" style="fill:rgb(76,211,214);stroke:rgb(64,64,64);stroke-width:4px;stroke-linejoin:round;"/>
    <circle cx="598.2" cy="367.6" r="15.8" style="fill:rgb(76,211,214);stroke:rgb(64,64,64);stroke-width:4px;stroke-linejoin:round;"/>
    <path d="M148.7,444.9L148.7,536.4M164.5,305.7L211.7,305.7M645,351.9L645,260.4" style="fill:none;fill-rule:nonzero;stroke:rgb(64,64,64);stroke-width:4px;"/>
    <g>
        <rect x="8" y="5.2" width="96.2" height="50" style="fill:rgb(179,227,255);fill-rule:nonzero;stroke:rgb(64,64,64);stroke-width:4px;stroke-linecap:round;stroke-linejoin:round;"/>
        <g>
            <path d="M40.9,36.3L40.9,26.3L42.9,26.3L45.3,33.4C45.5,34.1 45.7,34.6 45.8,34.9C45.9,34.5 46.1,34 46.3,33.3L48.7,26.3L50.5,26.3L50.5,36.3L49.2,36.3L49.2,27.9L46.3,36.3L45.1,36.3L42.2,27.8L42.2,36.3L40.9,36.3Z" style="fill:rgb(65,65,65);fill-rule:nonzero;"/>
            <path d="M57.9,35.4C57.4,35.8 57,36.1 56.6,36.2C56.2,36.4 55.7,36.4 55.2,36.4C54.4,36.4 53.8,36.2 53.4,35.8C53,35.4 52.8,34.9 52.8,34.3C52.8,33.9 52.9,33.6 53,33.3C53.2,33 53.4,32.8 53.6,32.6C53.9,32.4 54.2,32.3 54.5,32.2C54.7,32.1 55.1,32.1 55.6,32C56.6,31.9 57.3,31.7 57.8,31.6L57.8,31.3C57.8,30.8 57.7,30.4 57.5,30.2C57.2,29.9 56.7,29.8 56.1,29.8C55.5,29.8 55.1,29.9 54.8,30.1C54.5,30.3 54.3,30.7 54.2,31.2L53,31C53.1,30.5 53.3,30.1 53.5,29.8C53.8,29.5 54.1,29.2 54.6,29.1C55.1,28.9 55.6,28.8 56.2,28.8C56.8,28.8 57.3,28.9 57.7,29C58.1,29.1 58.4,29.3 58.6,29.6C58.8,29.8 58.9,30.1 59,30.4C59,30.6 59.1,31 59.1,31.5L59.1,33.1C59.1,34.2 59.1,35 59.2,35.3C59.3,35.6 59.4,35.9 59.5,36.2L58.2,36.2C58,36.1 57.9,35.8 57.9,35.4ZM57.8,32.7C57.4,32.9 56.7,33 55.8,33.2C55.3,33.3 54.9,33.4 54.7,33.4C54.5,33.4 54.3,33.6 54.2,33.8C54.1,34 54,34.2 54,34.4C54,34.7 54.1,35 54.4,35.2C54.6,35.4 55,35.5 55.5,35.5C56,35.5 56.4,35.4 56.8,35.2C57.2,35 57.4,34.7 57.6,34.3C57.7,34 57.8,33.6 57.8,33.1L57.8,32.7Z" style="fill:rgb(65,65,65);fill-rule:nonzero;"/>
            <path d="M61.6,27.7L61.6,26.3L62.8,26.3L62.8,27.7L61.6,27.7ZM61.6,36.3L61.6,29L62.8,29L62.8,36.3L61.6,36.3Z" style="fill:rgb(65,65,65);fill-rule:nonzero;"/>
            <path d="M65.4,36.3L65.4,29L66.5,29L66.5,30C67,29.2 67.8,28.8 68.8,28.8C69.2,28.8 69.6,28.9 70,29C70.4,29.2 70.6,29.4 70.8,29.6C71,29.8 71.1,30.2 71.2,30.5C71.2,30.7 71.3,31.1 71.3,31.7L71.3,36.2L70.1,36.2L70.1,31.8C70.1,31.3 70.1,30.9 70,30.7C69.9,30.5 69.7,30.3 69.5,30.1C69.3,30 69,29.9 68.6,29.9C68.1,29.9 67.6,30.1 67.2,30.4C66.8,30.7 66.6,31.4 66.6,32.3L66.6,36.3L65.4,36.3Z" style="fill:rgb(65,65,65);fill-rule:nonzero;"/>
        </g>
    </g>
</svg>
