<?xml version="1.0" encoding="UTF-8" standalone="no"?>
<!DOCTYPE svg PUBLIC "-//W3C//DTD SVG 1.1//EN" "http://www.w3.org/Graphics/SVG/1.1/DTD/svg11.dtd">
<svg width="100%" height="100%" viewBox="0 0 800 328" version="1.1" xmlns="http://www.w3.org/2000/svg" xmlns:xlink="http://www.w3.org/1999/xlink" xml:space="preserve" xmlns:serif="http://www.serif.com/" style="fill-rule:evenodd;clip-rule:evenodd;stroke-linecap:round;stroke-linejoin:round;stroke-miterlimit:10;">
    <path d="M151.7,32.3L150.1,32.3L150.1,36.6L148.6,36.6L148.6,26.1L152.6,26.1C154.6,26.1 155.9,27.5 155.9,29.3C155.9,30.8 154.9,32 153.3,32.3L155.8,36.8L154.1,36.8L151.7,32.3ZM152.4,31C153.6,31 154.4,30.3 154.4,29.2C154.4,28.1 153.6,27.4 152.4,27.4L150.2,27.4L150.2,31L152.4,31ZM164.5,34.6C164.1,35.9 162.9,36.9 161.3,36.9C159.4,36.9 157.7,35.5 157.7,33C157.7,30.7 159.3,29.2 161.2,29.2C163.4,29.2 164.7,30.7 164.7,33L164.7,33.5L159.3,33.5C159.3,34.8 160.3,35.7 161.5,35.7C162.7,35.7 163.3,35.1 163.5,34.2L164.5,34.6ZM163.1,32.3C163.1,31.3 162.4,30.5 161.1,30.5C159.9,30.5 159.2,31.4 159.1,32.3L163.1,32.3ZM167.1,36.7L167.1,25.8L168.5,25.8L168.5,36.7L167.1,36.7ZM178,34.6C177.6,35.9 176.4,36.9 174.8,36.9C172.9,36.9 171.2,35.5 171.2,33C171.2,30.7 172.8,29.2 174.7,29.2C176.9,29.2 178.2,30.7 178.2,33L178.2,33.5L172.8,33.5C172.8,34.8 173.8,35.7 175,35.7C176.2,35.7 176.8,35.1 177,34.2L178,34.6ZM176.5,32.3C176.5,31.3 175.8,30.5 174.5,30.5C173.3,30.5 172.6,31.4 172.5,32.3L176.5,32.3ZM182.3,32.6L184.3,32.3C184.7,32.2 184.9,32 184.9,31.8C184.9,31.1 184.4,30.5 183.3,30.5C182.3,30.5 181.8,31.1 181.7,32L180.4,31.7C180.6,30.3 181.8,29.4 183.4,29.4C185.6,29.4 186.4,30.6 186.4,32L186.4,35.6C186.4,36.2 186.5,36.6 186.5,36.8L185.1,36.8C185.1,36.6 185,36.3 185,35.8C184.7,36.3 184,37 182.7,37C181.2,37 180.3,36 180.3,34.8C180.1,33.5 181,32.7 182.3,32.6ZM184.8,33.6L184.8,33.3L182.6,33.6C182,33.7 181.6,34 181.6,34.7C181.6,35.2 182.1,35.7 182.8,35.7C183.9,35.7 184.8,35.2 184.8,33.6ZM189.7,34.4C189.8,35.2 190.4,35.7 191.4,35.7C192.2,35.7 192.6,35.3 192.6,34.7C192.6,34.3 192.3,33.9 191.7,33.8L190.5,33.5C189.4,33.3 188.7,32.5 188.7,31.5C188.7,30.3 189.9,29.2 191.3,29.2C193.3,29.2 193.9,30.5 194,31.1L192.8,31.6C192.7,31.2 192.4,30.4 191.3,30.4C190.6,30.4 190.1,30.9 190.1,31.4C190.1,31.8 190.4,32.2 190.9,32.3L192.1,32.6C193.4,32.9 194.1,33.7 194.1,34.7C194.1,35.7 193.2,36.9 191.5,36.9C189.5,36.9 188.7,35.6 188.6,34.8L189.7,34.4ZM202.9,34.6C202.5,35.9 201.3,36.9 199.7,36.9C197.8,36.9 196.1,35.5 196.1,33C196.1,30.7 197.7,29.2 199.5,29.2C201.7,29.2 203,30.7 203,33L203,33.5L197.6,33.5C197.6,34.8 198.6,35.7 199.8,35.7C201,35.7 201.6,35.1 201.8,34.2L202.9,34.6ZM201.5,32.3C201.5,31.3 200.8,30.5 199.5,30.5C198.3,30.5 197.6,31.4 197.5,32.3L201.5,32.3Z" style="fill:rgb(64,64,64);fill-rule:nonzero;"/>
    <rect x="146.4" y="5.7" width="96.2" height="50" style="fill:rgb(177,139,232);fill-rule:nonzero;stroke:rgb(64,64,64);stroke-width:4px;"/>
    <path d="M166.8,36.7L166.8,26.1L170.5,26.1C173.2,26.1 175.6,27.9 175.6,31.4C175.6,34.9 173.2,36.7 170.5,36.7L166.8,36.7ZM170.4,35.4C172.4,35.4 174,34.1 174,31.4C174,28.7 172.4,27.4 170.4,27.4L168.2,27.4L168.2,35.4L170.4,35.4ZM184.4,34.6C184,35.9 182.8,36.9 181.2,36.9C179.3,36.9 177.6,35.5 177.6,33C177.6,30.7 179.2,29.2 181,29.2C183.2,29.2 184.5,30.7 184.5,33L184.5,33.5L179,33.5C179,34.8 180,35.7 181.2,35.7C182.4,35.7 183,35.1 183.2,34.2L184.4,34.6ZM183,32.3C183,31.3 182.3,30.5 181,30.5C179.8,30.5 179.1,31.4 179,32.3L183,32.3ZM190.5,36.7L189.1,36.7L186.2,29.5L187.8,29.5L189.9,35.1L192,29.5L193.5,29.5L190.5,36.7ZM201.2,34.6C200.8,35.9 199.6,36.9 198,36.9C196.1,36.9 194.4,35.5 194.4,33C194.4,30.7 196,29.2 197.8,29.2C200,29.2 201.3,30.7 201.3,33L201.3,33.5L195.9,33.5C195.9,34.8 196.9,35.7 198.1,35.7C199.3,35.7 199.9,35.1 200.1,34.2L201.2,34.6ZM199.8,32.3C199.8,31.3 199.1,30.5 197.8,30.5C196.6,30.5 195.9,31.4 195.8,32.3L199.8,32.3ZM203.8,36.7L203.8,25.8L205.2,25.8L205.2,36.7L203.8,36.7ZM215.2,33.1C215.2,35.3 213.7,36.9 211.5,36.9C209.3,36.9 207.8,35.3 207.8,33.1C207.8,30.9 209.3,29.3 211.5,29.3C213.6,29.2 215.2,30.9 215.2,33.1ZM213.7,33.1C213.7,31.4 212.7,30.5 211.5,30.5C210.3,30.5 209.3,31.4 209.3,33.1C209.3,34.8 210.3,35.7 211.5,35.7C212.7,35.7 213.7,34.8 213.7,33.1ZM217.7,39.5L217.7,29.5L219.1,29.5L219.1,30.6C219.5,29.9 220.3,29.3 221.5,29.3C223.7,29.3 224.8,31 224.8,33.1C224.8,35.2 223.6,36.9 221.4,36.9C220.3,36.9 219.4,36.4 219.1,35.7L219.1,39.5L217.7,39.5ZM221.2,30.6C219.9,30.6 219.1,31.7 219.1,33.1C219.1,34.6 220,35.6 221.2,35.6C222.5,35.6 223.3,34.5 223.3,33.1C223.4,31.6 222.6,30.6 221.2,30.6Z" style="fill:rgb(64,64,64);fill-rule:nonzero;"/>
    <g transform="matrix(0.735562,0,0,1.35802,47.5988,-109.806)">
        <path d="M776.4,306.7L180,306.7" style="fill:none;fill-rule:nonzero;stroke:rgb(64,64,64);stroke-width:3.85px;stroke-linecap:butt;stroke-linejoin:miter;"/>
    </g>
    <g transform="matrix(1,0,0,1,-126.338,0)">
        <circle cx="485.4" cy="306.7" r="15.8" style="fill:rgb(177,139,232);stroke:rgb(64,64,64);stroke-width:4px;stroke-linecap:butt;stroke-linejoin:miter;"/>
    </g>
    <g transform="matrix(1,0,0,1,-27.9809,0)">
        <circle cx="316" cy="306.7" r="15.8" style="fill:rgb(177,139,232);stroke:rgb(64,64,64);stroke-width:4px;stroke-linecap:butt;stroke-linejoin:miter;"/>
    </g>
    <g transform="matrix(1,0,0,1,-354.425,0)">
        <circle cx="776.4" cy="306.7" r="15.8" style="fill:rgb(177,139,232);stroke:rgb(64,64,64);stroke-width:4px;stroke-linecap:butt;stroke-linejoin:miter;"/>
    </g>
    <g transform="matrix(1,0,0,1,-248.437,0)">
        <circle cx="776.4" cy="306.7" r="15.8" style="fill:rgb(177,139,232);stroke:rgb(64,64,64);stroke-width:4px;stroke-linecap:butt;stroke-linejoin:miter;"/>
    </g>
    <path d="M70.9,306.7L21.5,306.7" style="fill:none;fill-rule:nonzero;stroke:rgb(204,204,204);stroke-width:4px;stroke-miterlimit:4;stroke-dasharray:0,14.12;"/>
    <g transform="matrix(1,0,0,1,-41.5474,0)">
        <path d="M761.4,245.2L679.1,245.2" style="fill:none;fill-rule:nonzero;stroke:rgb(204,204,204);stroke-width:4px;stroke-miterlimit:4;stroke-dasharray:0,14.96;"/>
    </g>
    <path d="M85.1,275.9C85.1,258.9 71.3,245.2 54.3,245.2" style="fill:none;fill-rule:nonzero;stroke:rgb(64,64,64);stroke-width:4px;stroke-linecap:butt;stroke-linejoin:miter;"/>
    <g transform="matrix(0.958011,0,0,1,1.65438,0)">
        <path d="M645.2,245.2L39.4,245.2" style="fill:none;fill-rule:nonzero;stroke:rgb(64,64,64);stroke-width:4px;stroke-linecap:butt;stroke-linejoin:miter;"/>
    </g>
    <circle cx="23.6" cy="245.2" r="15.8" style="fill:rgb(179,227,255);stroke:rgb(64,64,64);stroke-width:4px;stroke-linecap:butt;stroke-linejoin:miter;"/>
    <g transform="matrix(1,0,0,1,-27.9809,0)">
        <circle cx="316" cy="245.2" r="15.8" style="fill:rgb(179,227,255);stroke:rgb(64,64,64);stroke-width:4px;stroke-linecap:butt;stroke-linejoin:miter;"/>
    </g>
    <rect x="49.2" y="139.7" width="42.5" height="37.5" style="fill:rgb(179,227,255);fill-rule:nonzero;stroke:rgb(64,64,64);stroke-width:4px;"/>
    <path d="M62.7,162.9L61.5,162.9L59,156.6L60.4,156.6L62.2,161.4L64,156.6L65.3,156.6L62.7,162.9ZM67.4,155.7C67.9,154.9 68.8,154.3 70,154.3C71.2,154.3 72,154.8 72.6,155.7C73.2,156.5 73.4,157.6 73.4,158.8C73.4,160 73.2,161 72.6,161.9C72.1,162.7 71.2,163.3 70,163.3C68.8,163.3 68,162.8 67.4,161.9C66.8,161.1 66.6,160 66.6,158.8C66.6,157.6 66.9,156.5 67.4,155.7ZM68.7,161.5C69,161.8 69.4,162 70,162C70.6,162 71,161.8 71.3,161.5C71.8,161 72,160.1 72,158.8C72,157.5 71.8,156.6 71.3,156.1C71,155.8 70.6,155.6 70,155.6C69.4,155.6 69,155.8 68.7,156.1C68.2,156.6 68,157.5 68,158.8C68,160.1 68.2,160.9 68.7,161.5ZM75.9,161.2C76.4,161.2 76.8,161.6 76.8,162.1C76.8,162.6 76.4,163 75.9,163C75.4,163 75,162.6 75,162.1C75,161.6 75.4,161.2 75.9,161.2ZM79.9,162.9L79.9,157L77.9,157L77.9,156.1C79.1,156.1 79.9,155.4 80.1,154.5L81.2,154.5L81.2,162.9L79.9,162.9Z" style="fill:rgb(64,64,64);fill-rule:nonzero;"/>
    <path d="M70.5,211.3L70.5,193.7M78.6,204.8L70.5,213L62.3,204.8" style="fill:none;fill-rule:nonzero;stroke:rgb(64,64,64);stroke-width:4px;"/>
    <g transform="matrix(1,0,0,1,-27.9809,0)">
        <rect x="294.7" y="139.7" width="42.5" height="37.5" style="fill:rgb(179,227,255);fill-rule:nonzero;stroke:rgb(64,64,64);stroke-width:4px;"/>
    </g>
    <g transform="matrix(1,0,0,1,-27.9809,0)">
        <path d="M306.6,162.9L305.4,162.9L302.9,156.6L304.3,156.6L306.1,161.4L307.9,156.6L309.2,156.6L306.6,162.9ZM311.3,155.7C311.8,154.9 312.7,154.3 313.9,154.3C315.1,154.3 315.9,154.8 316.5,155.7C317.1,156.5 317.3,157.6 317.3,158.8C317.3,160 317.1,161 316.5,161.9C316,162.7 315.1,163.3 313.9,163.3C312.7,163.3 311.9,162.8 311.3,161.9C310.7,161.1 310.5,160 310.5,158.8C310.5,157.6 310.8,156.5 311.3,155.7ZM312.6,161.5C312.9,161.8 313.3,162 313.9,162C314.5,162 314.9,161.8 315.2,161.5C315.7,161 315.9,160.1 315.9,158.8C315.9,157.5 315.7,156.6 315.2,156.1C314.9,155.8 314.5,155.6 313.9,155.6C313.3,155.6 312.9,155.8 312.6,156.1C312.1,156.6 311.9,157.5 311.9,158.8C311.9,160.1 312.1,160.9 312.6,161.5ZM319.8,161.2C320.3,161.2 320.7,161.6 320.7,162.1C320.7,162.6 320.3,163 319.8,163C319.3,163 318.9,162.6 318.9,162.1C318.9,161.6 319.3,161.2 319.8,161.2ZM322.9,157.4L322.9,157.1C322.9,155.7 324,154.4 325.8,154.4C327.6,154.4 328.6,155.6 328.6,157C328.6,158.1 328,159 327,159.6L325.3,160.7C324.8,161 324.4,161.4 324.3,161.9L328.6,161.9L328.6,163.1L322.7,163.1C322.7,161.7 323.3,160.7 324.7,159.7L326.1,158.8C326.9,158.3 327.3,157.7 327.3,157C327.3,156.2 326.8,155.5 325.7,155.5C324.6,155.5 324.1,156.3 324.1,157.2L324.1,157.6L322.9,157.4Z" style="fill:rgb(64,64,64);fill-rule:nonzero;"/>
    </g>
    <g transform="matrix(1,0,0,1,-27.9809,0)">
        <path d="M316,211.3L316,193.7M324.1,204.8L316,213L307.8,204.8" style="fill:none;fill-rule:nonzero;stroke:rgb(64,64,64);stroke-width:4px;"/>
    </g>
    <g transform="matrix(1,0,0,1,-144.144,0)">
        <rect x="623.9" y="139.7" width="42.5" height="37.5" style="fill:rgb(179,227,255);fill-rule:nonzero;stroke:rgb(64,64,64);stroke-width:4px;"/>
    </g>
    <g transform="matrix(1,0,0,1,-144.144,0)">
        <path d="M636.9,162.9L635.7,162.9L633.2,156.6L634.6,156.6L636.4,161.4L638.2,156.6L639.5,156.6L636.9,162.9ZM642.6,162.9L642.6,157L640.6,157L640.6,156.1C641.8,156.1 642.6,155.4 642.8,154.5L643.9,154.5L643.9,162.9L642.6,162.9ZM647.1,161.2C647.6,161.2 648,161.6 648,162.1C648,162.6 647.6,163 647.1,163C646.6,163 646.2,162.6 646.2,162.1C646.2,161.6 646.6,161.2 647.1,161.2ZM650.8,155.7C651.3,154.9 652.2,154.3 653.4,154.3C654.6,154.3 655.4,154.8 656,155.7C656.6,156.5 656.8,157.6 656.8,158.8C656.8,160 656.6,161 656,161.9C655.5,162.7 654.6,163.3 653.4,163.3C652.2,163.3 651.4,162.8 650.8,161.9C650.2,161.1 650,160 650,158.8C650,157.6 650.2,156.5 650.8,155.7ZM652,161.5C652.3,161.8 652.7,162 653.3,162C653.9,162 654.3,161.8 654.6,161.5C655.1,161 655.3,160.1 655.3,158.8C655.3,157.5 655.1,156.6 654.6,156.1C654.3,155.8 653.9,155.6 653.3,155.6C652.7,155.6 652.3,155.8 652,156.1C651.5,156.6 651.3,157.5 651.3,158.8C651.3,160.1 651.5,160.9 652,161.5Z" style="fill:rgb(64,64,64);fill-rule:nonzero;"/>
    </g>
    <g transform="matrix(1,0,0,1,-144.144,0)">
        <path d="M645.2,211.3L645.2,193.7M653.3,204.8L645.2,213L637,204.8" style="fill:none;fill-rule:nonzero;stroke:rgb(64,64,64);stroke-width:4px;"/>
    </g>
    <path d="M85.1,275.9C85.1,292.9 98.9,306.7 115.9,306.7L211.6,306.7" style="fill:none;fill-rule:nonzero;stroke:rgb(64,64,64);stroke-width:4px;stroke-linecap:butt;stroke-linejoin:miter;"/>
    <circle cx="195.7" cy="306.7" r="15.7" style="fill:rgb(177,139,232);stroke:rgb(64,64,64);stroke-width:4px;stroke-linecap:butt;stroke-linejoin:miter;"/>
    <circle cx="148.9" cy="306.7" r="15.8" style="fill:rgb(177,139,232);stroke:rgb(64,64,64);stroke-width:4px;stroke-linecap:butt;stroke-linejoin:miter;"/>
    <g>
        <rect x="7" y="5.7" width="96.2" height="50" style="fill:rgb(179,227,255);fill-rule:nonzero;stroke:rgb(64,64,64);stroke-width:4px;"/>
        <g>
            <path d="M39.9,36.8L39.9,26.8L41.9,26.8L44.3,33.9C44.5,34.6 44.7,35.1 44.8,35.4C44.9,35 45.1,34.5 45.3,33.8L47.7,26.8L49.5,26.8L49.5,36.8L48.2,36.8L48.2,28.4L45.3,36.8L44.1,36.8L41.2,28.3L41.2,36.8L39.9,36.8Z" style="fill:rgb(65,65,65);fill-rule:nonzero;"/>
            <path d="M56.9,35.9C56.4,36.3 56,36.6 55.6,36.7C55.2,36.9 54.7,36.9 54.2,36.9C53.4,36.9 52.8,36.7 52.4,36.3C52,35.9 51.8,35.4 51.8,34.8C51.8,34.4 51.9,34.1 52,33.8C52.2,33.5 52.4,33.3 52.6,33.1C52.9,32.9 53.2,32.8 53.5,32.7C53.7,32.6 54.1,32.6 54.6,32.5C55.6,32.4 56.3,32.2 56.8,32.1L56.8,31.8C56.8,31.3 56.7,30.9 56.5,30.7C56.2,30.4 55.7,30.3 55.1,30.3C54.5,30.3 54.1,30.4 53.8,30.6C53.5,30.8 53.3,31.2 53.2,31.7L52,31.5C52.1,31 52.3,30.6 52.5,30.3C52.8,30 53.1,29.7 53.6,29.6C54.1,29.4 54.6,29.3 55.2,29.3C55.8,29.3 56.3,29.4 56.7,29.5C57.1,29.6 57.4,29.8 57.6,30.1C57.8,30.3 57.9,30.6 58,30.9C58,31.1 58.1,31.5 58.1,32L58.1,33.6C58.1,34.7 58.1,35.5 58.2,35.8C58.3,36.1 58.4,36.4 58.5,36.7L57.2,36.7C57,36.6 56.9,36.3 56.9,35.9ZM56.8,33.2C56.4,33.4 55.7,33.5 54.8,33.7C54.3,33.8 53.9,33.9 53.7,33.9C53.5,33.9 53.3,34.1 53.2,34.3C53.1,34.5 53,34.7 53,34.9C53,35.2 53.1,35.5 53.4,35.7C53.6,35.9 54,36 54.5,36C55,36 55.4,35.9 55.8,35.7C56.2,35.5 56.4,35.2 56.6,34.8C56.7,34.5 56.8,34.1 56.8,33.6L56.8,33.2Z" style="fill:rgb(65,65,65);fill-rule:nonzero;"/>
            <path d="M60.6,28.2L60.6,26.8L61.8,26.8L61.8,28.2L60.6,28.2ZM60.6,36.8L60.6,29.5L61.8,29.5L61.8,36.8L60.6,36.8Z" style="fill:rgb(65,65,65);fill-rule:nonzero;"/>
            <path d="M64.4,36.8L64.4,29.5L65.5,29.5L65.5,30.5C66,29.7 66.8,29.3 67.8,29.3C68.2,29.3 68.6,29.4 69,29.5C69.4,29.7 69.6,29.9 69.8,30.1C70,30.3 70.1,30.7 70.2,31C70.2,31.2 70.3,31.6 70.3,32.2L70.3,36.7L69.1,36.7L69.1,32.3C69.1,31.8 69.1,31.4 69,31.2C68.9,31 68.7,30.8 68.5,30.6C68.3,30.5 68,30.4 67.6,30.4C67.1,30.4 66.6,30.6 66.2,30.9C65.8,31.2 65.6,31.9 65.6,32.8L65.6,36.8L64.4,36.8Z" style="fill:rgb(65,65,65);fill-rule:nonzero;"/>
        </g>
    </g>
    <g transform="matrix(1,0,0,1,-181.113,-65.1192)">
        <path d="M424.2,340.2C424.2,323.2 438,309.4 455,309.4" style="fill:none;fill-rule:nonzero;stroke:rgb(64,64,64);stroke-width:4px;stroke-linecap:butt;stroke-linejoin:miter;"/>
    </g>
    <g transform="matrix(1,0,0,1,-181.113,-65.1192)">
        <path d="M392.6,371L393.5,371C410.5,371 424.2,357.2 424.2,340.2" style="fill:none;fill-rule:nonzero;stroke:rgb(64,64,64);stroke-width:4px;stroke-linecap:butt;stroke-linejoin:miter;"/>
    </g>
    <g transform="matrix(1,0,0,1,42.7346,-65.1192)">
        <path d="M424.2,340.2C424.2,323.2 438,309.4 455,309.4" style="fill:none;fill-rule:nonzero;stroke:rgb(64,64,64);stroke-width:4px;stroke-linecap:butt;stroke-linejoin:miter;"/>
    </g>
    <g transform="matrix(1,0,0,1,-144.144,0)">
        <circle cx="645.2" cy="245.2" r="15.8" style="fill:rgb(179,227,255);stroke:rgb(64,64,64);stroke-width:4px;stroke-linecap:butt;stroke-linejoin:miter;"/>
    </g>
    <g transform="matrix(1,0,0,1,42.7346,-65.1192)">
        <path d="M392.6,371L393.5,371C410.5,371 424.2,357.2 424.2,340.2" style="fill:none;fill-rule:nonzero;stroke:rgb(64,64,64);stroke-width:4px;stroke-linecap:butt;stroke-linejoin:miter;"/>
    </g>
    <g transform="matrix(1,0,0,1,-41.5474,61.4732)">
        <path d="M761.4,245.2L679.1,245.2" style="fill:none;fill-rule:nonzero;stroke:rgb(204,204,204);stroke-width:4px;stroke-miterlimit:4;stroke-dasharray:0,14.96;"/>
    </g>
</svg>
