<?xml version="1.0" encoding="UTF-8" standalone="no"?>
<!DOCTYPE svg PUBLIC "-//W3C//DTD SVG 1.1//EN" "http://www.w3.org/Graphics/SVG/1.1/DTD/svg11.dtd">
<svg width="100%" height="100%" viewBox="0 0 800 514" version="1.1" xmlns="http://www.w3.org/2000/svg" xmlns:xlink="http://www.w3.org/1999/xlink" xml:space="preserve" xmlns:serif="http://www.serif.com/" style="fill-rule:evenodd;clip-rule:evenodd;stroke-linecap:round;stroke-linejoin:round;stroke-miterlimit:10;">
    <rect x="145.5" y="5.7" width="96.2" height="50" style="fill:rgb(76,211,214);fill-rule:nonzero;stroke:rgb(64,64,64);stroke-width:4px;"/>
    <path d="M170.8,32.4L169.2,32.4L169.2,36.7L167.7,36.7L167.7,26.1L171.7,26.1C173.7,26.1 175,27.5 175,29.3C175,30.8 174,32 172.4,32.3L174.9,36.8L173.2,36.8L170.8,32.4ZM171.5,31.1C172.7,31.1 173.5,30.4 173.5,29.3C173.5,28.2 172.7,27.5 171.5,27.5L169.3,27.5L169.3,31.1L171.5,31.1ZM183.6,34.7C183.2,36 182,37 180.4,37C178.5,37 176.8,35.6 176.8,33.1C176.8,30.8 178.4,29.3 180.3,29.3C182.5,29.3 183.8,30.8 183.8,33.1L183.8,33.6L178.4,33.6C178.4,34.9 179.4,35.8 180.6,35.8C181.8,35.8 182.4,35.2 182.6,34.3L183.6,34.7ZM182.2,32.4C182.2,31.4 181.5,30.6 180.2,30.6C179,30.6 178.3,31.5 178.2,32.4L182.2,32.4ZM186.2,36.8L186.2,25.9L187.6,25.9L187.6,36.8L186.2,36.8ZM197,34.7C196.6,36 195.4,37 193.8,37C191.9,37 190.2,35.6 190.2,33.1C190.2,30.8 191.8,29.3 193.7,29.3C195.9,29.3 197.2,30.8 197.2,33.1L197.2,33.6L191.8,33.6C191.8,34.9 192.8,35.8 194,35.8C195.2,35.8 195.8,35.2 196,34.3L197,34.7ZM195.6,32.4C195.6,31.4 194.9,30.6 193.6,30.6C192.4,30.6 191.7,31.5 191.6,32.4L195.6,32.4ZM201.4,32.6L203.4,32.3C203.8,32.2 204,32 204,31.8C204,31.1 203.5,30.5 202.4,30.5C201.4,30.5 200.9,31.1 200.8,32L199.5,31.7C199.7,30.3 200.9,29.4 202.5,29.4C204.7,29.4 205.5,30.6 205.5,32L205.5,35.6C205.5,36.2 205.6,36.6 205.6,36.8L204,36.8C204,36.6 203.9,36.3 203.9,35.8C203.6,36.3 202.9,37 201.6,37C200.1,37 199.2,36 199.2,34.8C199.2,33.5 200.1,32.8 201.4,32.6ZM203.9,33.6L203.9,33.3L201.7,33.6C201.1,33.7 200.7,34 200.7,34.7C200.7,35.2 201.2,35.7 201.9,35.7C202.9,35.8 203.9,35.2 203.9,33.6ZM208.8,34.4C208.9,35.2 209.5,35.7 210.5,35.7C211.3,35.7 211.7,35.2 211.7,34.7C211.7,34.3 211.4,33.9 210.8,33.8L209.6,33.5C208.5,33.3 207.8,32.5 207.8,31.5C207.8,30.3 209,29.2 210.4,29.2C212.4,29.2 213,30.5 213.1,31.1L211.9,31.6C211.8,31.2 211.5,30.4 210.4,30.4C209.7,30.4 209.2,30.9 209.2,31.4C209.2,31.8 209.5,32.2 210,32.3L211.2,32.6C212.5,32.9 213.2,33.7 213.2,34.7C213.2,35.7 212.3,36.9 210.6,36.9C208.6,36.9 207.8,35.6 207.7,34.8L208.8,34.4ZM222,34.7C221.6,36 220.4,37 218.8,37C216.9,37 215.2,35.6 215.2,33.1C215.2,30.8 216.8,29.3 218.6,29.3C220.8,29.3 222.1,30.8 222.1,33.1L222.1,33.6L216.7,33.6C216.7,34.9 217.7,35.8 218.9,35.8C220.1,35.8 220.7,35.2 220.9,34.3L222,34.7ZM220.5,32.4C220.5,31.4 219.8,30.6 218.5,30.6C217.3,30.6 216.6,31.5 216.5,32.4L220.5,32.4Z" style="fill:rgb(64,64,64);fill-rule:nonzero;"/>
    <rect x="283.7" y="5.7" width="96.2" height="50" style="fill:rgb(177,139,232);fill-rule:nonzero;stroke:rgb(64,64,64);stroke-width:4px;"/>
    <path d="M304,36.7L304,26.1L307.7,26.1C310.4,26.1 312.8,27.9 312.8,31.4C312.8,34.9 310.4,36.7 307.7,36.7L304,36.7ZM307.7,35.4C309.7,35.4 311.3,34.1 311.3,31.4C311.3,28.7 309.7,27.4 307.7,27.4L305.5,27.4L305.5,35.4L307.7,35.4ZM321.7,34.7C321.3,36 320.1,37 318.5,37C316.6,37 314.9,35.6 314.9,33.1C314.9,30.8 316.5,29.3 318.4,29.3C320.6,29.3 321.9,30.8 321.9,33.1L321.9,33.6L316.5,33.6C316.5,34.9 317.5,35.8 318.7,35.8C319.9,35.8 320.5,35.2 320.7,34.3L321.7,34.7ZM320.3,32.4C320.3,31.4 319.6,30.6 318.3,30.6C317.1,30.6 316.4,31.5 316.3,32.4L320.3,32.4ZM327.8,36.7L326.4,36.7L323.5,29.5L325.1,29.5L327.2,35.1L329.3,29.5L330.8,29.5L327.8,36.7ZM338.5,34.7C338.1,36 336.9,37 335.3,37C333.4,37 331.7,35.6 331.7,33.1C331.7,30.8 333.3,29.3 335.2,29.3C337.4,29.3 338.7,30.8 338.7,33.1L338.7,33.6L333.3,33.6C333.3,34.9 334.3,35.8 335.5,35.8C336.7,35.8 337.3,35.2 337.5,34.3L338.5,34.7ZM337.1,32.4C337.1,31.4 336.4,30.6 335.1,30.6C333.9,30.6 333.2,31.5 333.1,32.4L337.1,32.4ZM341.1,36.8L341.1,25.9L342.5,25.9L342.5,36.8L341.1,36.8ZM352.4,33.1C352.4,35.3 350.9,36.9 348.7,36.9C346.5,36.9 345,35.3 345,33.1C345,30.9 346.5,29.3 348.7,29.3C350.9,29.3 352.4,30.9 352.4,33.1ZM351,33.1C351,31.4 350,30.5 348.8,30.5C347.6,30.5 346.6,31.4 346.6,33.1C346.6,34.8 347.7,35.7 348.8,35.7C349.9,35.7 351,34.8 351,33.1ZM355,39.6L355,29.5L356.4,29.5L356.4,30.6C356.8,29.9 357.6,29.3 358.8,29.3C361,29.3 362.1,31 362.1,33.1C362.1,35.2 360.9,36.9 358.7,36.9C357.6,36.9 356.7,36.4 356.4,35.7L356.4,39.5L355,39.5L355,39.6ZM358.5,30.6C357.2,30.6 356.4,31.7 356.4,33.1C356.4,34.6 357.3,35.7 358.5,35.7C359.8,35.7 360.6,34.6 360.6,33.1C360.6,31.7 359.8,30.6 358.5,30.6Z" style="fill:rgb(64,64,64);fill-rule:nonzero;"/>
    <rect x="420.9" y="5.7" width="96.2" height="50" style="fill:rgb(78,209,161);fill-rule:nonzero;stroke:rgb(64,64,64);stroke-width:4px;"/>
    <path d="M443.4,36.2L443.4,25.6L449.9,25.6L449.9,27L444.9,27L444.9,30.4L449.4,30.4L449.4,31.8L444.9,31.8L444.9,36.3L443.4,36.2ZM458,34.2C457.6,35.5 456.4,36.5 454.8,36.5C452.9,36.5 451.2,35.1 451.2,32.6C451.2,30.3 452.8,28.8 454.7,28.8C456.9,28.8 458.2,30.3 458.2,32.6L458.2,33.1L452.8,33.1C452.8,34.4 453.8,35.3 455,35.3C456.2,35.3 456.8,34.7 457,33.8L458,34.2ZM456.6,31.9C456.6,30.9 455.9,30.1 454.6,30.1C453.4,30.1 452.7,31 452.6,31.9L456.6,31.9ZM462.4,32.1L464.3,31.8C464.7,31.7 464.9,31.5 464.9,31.3C464.9,30.6 464.4,30 463.3,30C462.3,30 461.8,30.6 461.7,31.5L460.4,31.2C460.5,29.8 461.8,28.9 463.4,28.9C465.6,28.9 466.4,30.1 466.4,31.5L466.4,35C466.4,35.6 466.5,36 466.5,36.2L465,36.2C465,36 464.9,35.7 464.9,35.2C464.6,35.7 463.9,36.4 462.6,36.4C461.1,36.4 460.2,35.4 460.2,34.2C460.2,33 461.1,32.3 462.4,32.1ZM464.9,33.1L464.9,32.8L462.7,33.1C462.1,33.2 461.7,33.5 461.7,34.2C461.7,34.7 462.1,35.2 462.9,35.2C463.9,35.3 464.9,34.7 464.9,33.1ZM471.1,29L472.7,29L472.7,30.3L471.1,30.3L471.1,34C471.1,34.7 471.4,35 472.1,35C472.3,35 472.5,35 472.7,34.9L472.7,36.1C472.6,36.1 472.2,36.2 471.7,36.2C470.5,36.2 469.7,35.4 469.7,34.1L469.7,30.1L468.3,30.1L468.3,29L468.7,29C469.5,29 469.8,28.5 469.8,27.9L469.8,26.7L471.1,26.7L471.1,29ZM477.9,36.4C476.2,36.4 475.2,35.1 475.2,33.5L475.2,29L476.6,29L476.6,33.3C476.6,34.3 477.1,35.2 478.2,35.2C479.3,35.2 479.9,34.4 479.9,33.4L479.9,29L481.3,29L481.3,34.9C481.3,35.5 481.3,36 481.4,36.2L480,36.2C480,36 479.9,35.6 479.9,35.3C479.7,36.1 478.8,36.4 477.9,36.4ZM488.6,30.4L487.9,30.4C486.7,30.4 485.9,31 485.9,32.6L485.9,36.2L484.5,36.2L484.5,29L485.9,29L485.9,30.3C486.4,29.2 487.3,28.9 488.1,28.9L488.6,28.9L488.6,30.4ZM497,34.2C496.6,35.5 495.4,36.5 493.8,36.5C491.9,36.5 490.2,35.1 490.2,32.6C490.2,30.3 491.8,28.8 493.7,28.8C495.9,28.8 497.2,30.3 497.2,32.6L497.2,33.1L491.8,33.1C491.8,34.4 492.8,35.3 494,35.3C495.2,35.3 495.8,34.7 496,33.8L497,34.2ZM495.6,31.9C495.6,30.9 494.9,30.1 493.6,30.1C492.4,30.1 491.7,31 491.6,31.9L495.6,31.9Z" style="fill:rgb(64,64,64);fill-rule:nonzero;"/>
    <path d="M424.3,399.1C424.3,382.1 438.1,368.3 455.1,368.3" style="fill:none;fill-rule:nonzero;stroke:rgb(64,64,64);stroke-width:4px;stroke-linecap:butt;stroke-linejoin:miter;"/>
    <path d="M254,399.1C254,382.1 240.2,368.3 223.2,368.3M164.3,491.4L378.3,491.4" style="fill:none;fill-rule:nonzero;stroke:rgb(64,64,64);stroke-width:4px;stroke-linecap:butt;stroke-linejoin:miter;"/>
    <circle cx="315.7" cy="491.4" r="15.8" style="fill:rgb(78,209,161);stroke:rgb(64,64,64);stroke-width:4px;stroke-linecap:butt;stroke-linejoin:miter;"/>
    <circle cx="362.5" cy="491.4" r="15.8" style="fill:rgb(78,209,161);stroke:rgb(64,64,64);stroke-width:4px;stroke-linecap:butt;stroke-linejoin:miter;"/>
    <circle cx="242.3" cy="491.4" r="15.8" style="fill:rgb(78,209,161);stroke:rgb(64,64,64);stroke-width:4px;stroke-linecap:butt;stroke-linejoin:miter;"/>
    <path d="M776.1,368.4L179.7,368.4" style="fill:none;fill-rule:nonzero;stroke:rgb(64,64,64);stroke-width:4px;stroke-linecap:butt;stroke-linejoin:miter;"/>
    <circle cx="485.1" cy="368.4" r="15.8" style="fill:rgb(177,139,232);stroke:rgb(64,64,64);stroke-width:4px;stroke-linecap:butt;stroke-linejoin:miter;"/>
    <circle cx="776.1" cy="368.4" r="15.8" style="fill:rgb(177,139,232);stroke:rgb(64,64,64);stroke-width:4px;stroke-linecap:butt;stroke-linejoin:miter;"/>
    <path d="M254,399.1C254,416.1 267.8,429.9 284.8,429.9L392.7,429.9" style="fill:none;fill-rule:nonzero;stroke:rgb(64,64,64);stroke-width:4px;stroke-linecap:butt;stroke-linejoin:miter;"/>
    <circle cx="315.7" cy="429.9" r="15.8" style="fill:rgb(78,209,161);stroke:rgb(64,64,64);stroke-width:4px;stroke-linecap:butt;stroke-linejoin:miter;"/>
    <circle cx="362.5" cy="429.9" r="15.8" style="fill:rgb(78,209,161);stroke:rgb(64,64,64);stroke-width:4px;stroke-linecap:butt;stroke-linejoin:miter;"/>
    <path d="M392.6,429.9L393.5,429.9C410.5,429.9 424.2,416.1 424.2,399.1" style="fill:none;fill-rule:nonzero;stroke:rgb(64,64,64);stroke-width:4px;stroke-linecap:butt;stroke-linejoin:miter;"/>
    <path d="M59.1,306.9L21.7,306.9" style="fill:none;fill-rule:nonzero;stroke:rgb(204,204,204);stroke-width:4px;stroke-miterlimit:4;stroke-dasharray:0,14.99;"/>
    <path d="M528.8,306.9L101.4,306.9" style="fill:none;fill-rule:nonzero;stroke:rgb(204,204,204);stroke-width:4px;stroke-miterlimit:4;stroke-dasharray:0,14.01;"/>
    <path d="M761.3,306.9L709.6,306.9" style="fill:none;fill-rule:nonzero;stroke:rgb(204,204,204);stroke-width:4px;stroke-miterlimit:4;stroke-dasharray:0,14.79;"/>
    <path d="M761.1,245.4L678.8,245.4" style="fill:none;fill-rule:nonzero;stroke:rgb(204,204,204);stroke-width:4px;stroke-miterlimit:4;stroke-dasharray:0,14.96;"/>
    <path d="M84.8,276.1C84.8,259.1 71,245.3 54,245.3" style="fill:none;fill-rule:nonzero;stroke:rgb(64,64,64);stroke-width:4px;stroke-linecap:butt;stroke-linejoin:miter;"/>
    <circle cx="148.6" cy="491.4" r="15.8" style="fill:rgb(78,209,161);stroke:rgb(64,64,64);stroke-width:4px;stroke-linecap:butt;stroke-linejoin:miter;"/>
    <path d="M644.9,245.4L39.1,245.4" style="fill:none;fill-rule:nonzero;stroke:rgb(64,64,64);stroke-width:4px;stroke-linecap:butt;stroke-linejoin:miter;"/>
    <g transform="matrix(0.9999,-0.0151463,0.0151463,0.9999,-3.7142,0.3811)">
        <circle cx="23.3" cy="245.4" r="15.8" style="fill:rgb(179,227,255);stroke:rgb(64,64,64);stroke-width:4px;stroke-linecap:butt;stroke-linejoin:miter;"/>
    </g>
    <circle cx="315.7" cy="245.4" r="15.8" style="fill:rgb(179,227,255);stroke:rgb(64,64,64);stroke-width:4px;stroke-linecap:butt;stroke-linejoin:miter;"/>
    <circle cx="644.9" cy="245.4" r="15.8" style="fill:rgb(179,227,255);stroke:rgb(64,64,64);stroke-width:4px;stroke-linecap:butt;stroke-linejoin:miter;"/>
    <rect x="48.9" y="139.9" width="42.5" height="37.5" style="fill:rgb(179,227,255);fill-rule:nonzero;stroke:rgb(64,64,64);stroke-width:4px;"/>
    <path d="M62.4,163.1L61.2,163.1L58.7,156.8L60.1,156.8L61.9,161.6L63.7,156.8L65,156.8L62.4,163.1ZM67.1,155.9C67.6,155.1 68.5,154.5 69.7,154.5C70.9,154.5 71.7,155 72.3,155.9C72.9,156.7 73.1,157.8 73.1,159C73.1,160.2 72.9,161.2 72.3,162.1C71.8,162.9 70.9,163.5 69.7,163.5C68.5,163.5 67.7,163 67.1,162.1C66.5,161.3 66.3,160.2 66.3,159C66.3,157.8 66.6,156.7 67.1,155.9ZM68.4,161.6C68.7,161.9 69.1,162.1 69.7,162.1C70.3,162.1 70.7,161.9 71,161.6C71.5,161.1 71.7,160.2 71.7,158.9C71.7,157.6 71.5,156.7 71,156.2C70.7,155.9 70.3,155.7 69.7,155.7C69.1,155.7 68.7,155.9 68.4,156.2C67.9,156.7 67.7,157.6 67.7,158.9C67.7,160.2 67.9,161.1 68.4,161.6ZM75.6,161.4C76.1,161.4 76.5,161.8 76.5,162.3C76.5,162.8 76.1,163.2 75.6,163.2C75.1,163.2 74.7,162.8 74.7,162.3C74.7,161.8 75.1,161.4 75.6,161.4ZM79.6,163.1L79.6,157.2L77.6,157.2L77.6,156.3C78.8,156.3 79.6,155.6 79.8,154.7L80.9,154.7L80.9,163.1L79.6,163.1Z" style="fill:rgb(64,64,64);fill-rule:nonzero;"/>
    <path d="M70.2,211.5L70.2,193.9M78.3,205L70.2,213.1L62,205" style="fill:none;fill-rule:nonzero;stroke:rgb(64,64,64);stroke-width:4px;"/>
    <rect x="294.4" y="139.9" width="42.5" height="37.5" style="fill:rgb(179,227,255);fill-rule:nonzero;stroke:rgb(64,64,64);stroke-width:4px;"/>
    <path d="M306.4,163.1L305.2,163.1L302.7,156.8L304.1,156.8L305.9,161.6L307.7,156.8L309,156.8L306.4,163.1ZM311,155.9C311.5,155.1 312.4,154.5 313.6,154.5C314.8,154.5 315.6,155 316.2,155.9C316.8,156.7 317,157.8 317,159C317,160.2 316.8,161.2 316.2,162.1C315.7,162.9 314.8,163.5 313.6,163.5C312.4,163.5 311.6,163 311,162.1C310.4,161.3 310.2,160.2 310.2,159C310.2,157.8 310.5,156.7 311,155.9ZM312.3,161.6C312.6,161.9 313,162.1 313.6,162.1C314.2,162.1 314.6,161.9 314.9,161.6C315.4,161.1 315.6,160.2 315.6,158.9C315.6,157.6 315.4,156.7 314.9,156.2C314.6,155.9 314.2,155.7 313.6,155.7C313,155.7 312.6,155.9 312.3,156.2C311.8,156.7 311.6,157.6 311.6,158.9C311.6,160.2 311.8,161.1 312.3,161.6ZM319.5,161.4C320,161.4 320.4,161.8 320.4,162.3C320.4,162.8 320,163.2 319.5,163.2C319,163.2 318.6,162.8 318.6,162.3C318.6,161.8 319,161.4 319.5,161.4ZM322.6,157.6L322.6,157.3C322.6,155.9 323.7,154.6 325.5,154.6C327.3,154.6 328.3,155.8 328.3,157.2C328.3,158.3 327.7,159.2 326.7,159.8L325,160.9C324.5,161.2 324.1,161.6 324,162.1L328.3,162.1L328.3,163.3L322.4,163.3C322.4,161.9 323,160.9 324.4,159.9L325.8,159C326.6,158.5 327,157.9 327,157.2C327,156.4 326.5,155.7 325.4,155.7C324.3,155.7 323.8,156.5 323.8,157.4L323.8,157.8L322.6,157.6Z" style="fill:rgb(64,64,64);fill-rule:nonzero;"/>
    <path d="M315.7,211.5L315.7,193.9M323.8,205L315.7,213.1L307.5,205" style="fill:none;fill-rule:nonzero;stroke:rgb(64,64,64);stroke-width:4px;"/>
    <rect x="623.6" y="139.9" width="42.5" height="37.5" style="fill:rgb(179,227,255);fill-rule:nonzero;stroke:rgb(64,64,64);stroke-width:4px;"/>
    <path d="M636.7,163.1L635.5,163.1L633,156.8L634.4,156.8L636.2,161.6L638,156.8L639.3,156.8L636.7,163.1ZM642.3,163.1L642.3,157.2L640.3,157.2L640.3,156.3C641.5,156.3 642.3,155.6 642.5,154.7L643.6,154.7L643.6,163.1L642.3,163.1ZM646.9,161.4C647.4,161.4 647.8,161.8 647.8,162.3C647.8,162.8 647.4,163.2 646.9,163.2C646.4,163.2 646,162.8 646,162.3C646,161.8 646.3,161.4 646.9,161.4ZM650.5,155.9C651,155.1 651.9,154.5 653.1,154.5C654.3,154.5 655.1,155 655.7,155.9C656.3,156.7 656.5,157.8 656.5,159C656.5,160.2 656.3,161.2 655.7,162.1C655.2,162.9 654.3,163.5 653.1,163.5C651.9,163.5 651.1,163 650.5,162.1C649.9,161.3 649.7,160.2 649.7,159C649.7,157.8 649.9,156.7 650.5,155.9ZM651.7,161.6C652,161.9 652.4,162.1 653,162.1C653.6,162.1 654,161.9 654.3,161.6C654.8,161.1 655,160.2 655,158.9C655,157.6 654.8,156.7 654.3,156.2C654,155.9 653.6,155.7 653,155.7C652.4,155.7 652,155.9 651.7,156.2C651.2,156.7 651,157.6 651,158.9C651,160.2 651.2,161.1 651.7,161.6Z" style="fill:rgb(64,64,64);fill-rule:nonzero;"/>
    <path d="M644.9,211.5L644.9,193.9M653,205L644.9,213.1L636.8,205" style="fill:none;fill-rule:nonzero;stroke:rgb(64,64,64);stroke-width:4px;"/>
    <path d="M64.3,368.4L20.4,368.4" style="fill:none;fill-rule:nonzero;stroke:rgb(204,204,204);stroke-width:4px;stroke-miterlimit:4;stroke-dasharray:0,12.54;"/>
    <path d="M246.8,429.9L21,429.9" style="fill:none;fill-rule:nonzero;stroke:rgb(204,204,204);stroke-width:4px;stroke-miterlimit:4;stroke-dasharray:0,13.68;"/>
    <path d="M762.3,429.9L424.9,429.9" style="fill:none;fill-rule:nonzero;stroke:rgb(204,204,204);stroke-width:4px;stroke-miterlimit:4;stroke-dasharray:0,13.77;"/>
    <path d="M109.7,491.4L21,491.4" style="fill:none;fill-rule:nonzero;stroke:rgb(204,204,204);stroke-width:4px;stroke-miterlimit:4;stroke-dasharray:0,13.65;"/>
    <path d="M762.2,491.4L393.7,491.4" style="fill:none;fill-rule:nonzero;stroke:rgb(204,204,204);stroke-width:4px;stroke-miterlimit:4;stroke-dasharray:0,13.91;"/>
    <path d="M84.8,275.7L84.8,337.6C84.8,354.6 98.6,368.4 115.6,368.4L211.3,368.4" style="fill:none;fill-rule:nonzero;stroke:rgb(64,64,64);stroke-width:4px;stroke-linecap:butt;stroke-linejoin:miter;"/>
    <circle cx="195.5" cy="368.4" r="15.7" style="fill:rgb(177,139,232);stroke:rgb(64,64,64);stroke-width:4px;stroke-linecap:butt;stroke-linejoin:miter;"/>
    <circle cx="148.6" cy="368.4" r="15.8" style="fill:rgb(177,139,232);stroke:rgb(64,64,64);stroke-width:4px;stroke-linecap:butt;stroke-linejoin:miter;"/>
    <path d="M536.3,337.6C536.3,354.6 522.5,368.4 505.6,368.4M706.6,337.6C706.6,354.6 720.4,368.4 737.4,368.4L760.4,368.4M567.9,306.9L567,306.9C550,306.9 536.2,320.7 536.2,337.7M706.6,337.6C706.6,320.6 692.8,306.8 675.8,306.8L567.9,306.8" style="fill:none;fill-rule:nonzero;stroke:rgb(64,64,64);stroke-width:4px;stroke-linecap:butt;stroke-linejoin:miter;"/>
    <circle cx="644.9" cy="306.9" r="15.8" style="fill:rgb(76,211,214);stroke:rgb(64,64,64);stroke-width:4px;stroke-linecap:butt;"/>
    <circle cx="598" cy="306.9" r="15.8" style="fill:rgb(76,211,214);stroke:rgb(64,64,64);stroke-width:4px;stroke-linecap:butt;"/>
    <path d="M148.6,384.1L148.6,475.6M644.9,291.1L644.9,261.1" style="fill:none;fill-rule:nonzero;stroke:rgb(64,64,64);stroke-width:4px;stroke-linecap:butt;stroke-linejoin:miter;"/>
    <g>
        <rect x="7.8" y="5.7" width="96.2" height="50" style="fill:rgb(179,227,255);fill-rule:nonzero;stroke:rgb(64,64,64);stroke-width:4px;"/>
        <g>
            <path d="M40.7,36.8L40.7,26.8L42.7,26.8L45.1,33.9C45.3,34.6 45.5,35.1 45.6,35.4C45.7,35 45.9,34.5 46.1,33.8L48.5,26.8L50.3,26.8L50.3,36.8L49,36.8L49,28.4L46.1,36.8L44.9,36.8L42,28.3L42,36.8L40.7,36.8Z" style="fill:rgb(65,65,65);fill-rule:nonzero;"/>
            <path d="M57.7,35.9C57.2,36.3 56.8,36.6 56.4,36.7C56,36.9 55.5,36.9 55,36.9C54.2,36.9 53.6,36.7 53.2,36.3C52.8,35.9 52.6,35.4 52.6,34.8C52.6,34.4 52.7,34.1 52.8,33.8C53,33.5 53.2,33.3 53.4,33.1C53.7,32.9 54,32.8 54.3,32.7C54.5,32.6 54.9,32.6 55.4,32.5C56.4,32.4 57.1,32.2 57.6,32.1L57.6,31.8C57.6,31.3 57.5,30.9 57.3,30.7C57,30.4 56.5,30.3 55.9,30.3C55.3,30.3 54.9,30.4 54.6,30.6C54.3,30.8 54.1,31.2 54,31.7L52.8,31.5C52.9,31 53.1,30.6 53.3,30.3C53.6,30 53.9,29.7 54.4,29.6C54.9,29.4 55.4,29.3 56,29.3C56.6,29.3 57.1,29.4 57.5,29.5C57.9,29.6 58.2,29.8 58.4,30.1C58.6,30.3 58.7,30.6 58.8,30.9C58.8,31.1 58.9,31.5 58.9,32L58.9,33.6C58.9,34.7 58.9,35.5 59,35.8C59.1,36.1 59.2,36.4 59.3,36.7L58,36.7C57.8,36.6 57.7,36.3 57.7,35.9ZM57.6,33.2C57.2,33.4 56.5,33.5 55.6,33.7C55.1,33.8 54.7,33.9 54.5,33.9C54.3,33.9 54.1,34.1 54,34.3C53.9,34.5 53.8,34.7 53.8,34.9C53.8,35.2 53.9,35.5 54.2,35.7C54.4,35.9 54.8,36 55.3,36C55.8,36 56.2,35.9 56.6,35.7C57,35.5 57.2,35.2 57.4,34.8C57.5,34.5 57.6,34.1 57.6,33.6L57.6,33.2Z" style="fill:rgb(65,65,65);fill-rule:nonzero;"/>
            <path d="M61.4,28.2L61.4,26.8L62.6,26.8L62.6,28.2L61.4,28.2ZM61.4,36.8L61.4,29.5L62.6,29.5L62.6,36.8L61.4,36.8Z" style="fill:rgb(65,65,65);fill-rule:nonzero;"/>
            <path d="M65.2,36.8L65.2,29.5L66.3,29.5L66.3,30.5C66.8,29.7 67.6,29.3 68.6,29.3C69,29.3 69.4,29.4 69.8,29.5C70.2,29.7 70.4,29.9 70.6,30.1C70.8,30.3 70.9,30.7 71,31C71,31.2 71.1,31.6 71.1,32.2L71.1,36.7L69.9,36.7L69.9,32.3C69.9,31.8 69.9,31.4 69.8,31.2C69.7,31 69.5,30.8 69.3,30.6C69.1,30.5 68.8,30.4 68.4,30.4C67.9,30.4 67.4,30.6 67,30.9C66.6,31.2 66.4,31.9 66.4,32.8L66.4,36.8L65.2,36.8Z" style="fill:rgb(65,65,65);fill-rule:nonzero;"/>
        </g>
    </g>
</svg>
